<svg width="541" height="375" viewBox="0 0 541 375" fill="none" xmlns="http://www.w3.org/2000/svg">
<g clip-path="url(#clip0)">
<path d="M247.89 316.51C232.067 316.556 216.243 316.924 200.448 318.626C194.492 319.267 188.661 320.678 182.692 321.247C170.769 322.384 159.059 324.505 147.093 325.483C137.458 326.271 127.782 326.735 118.174 327.735C108.872 328.703 99.4832 328.425 90.2554 326.908C83.6383 325.762 76.9908 325.116 70.4846 323.276C63.2066 321.216 55.2998 319.744 47.7168 319.797C36.9035 319.873 26.3729 319.882 16.0246 323.517C12.392 324.794 7.94502 326.892 5.18651 329.57C-1.12823 335.702 -1.98297 351.002 4.3222 357.362C14.9421 368.065 37.608 372.265 52.4939 372.463C68.8057 372.68 84.6521 371.508 100.988 370.818C116.168 370.178 131.309 369.266 146.514 369.298C177.568 369.364 208.626 369.298 239.624 367.289C268.747 365.402 297.943 366.05 327.13 366.05C357.06 366.05 386.788 366.278 416.502 370.13C429.449 371.808 442.639 372.396 455.65 373.572C467.303 374.625 478.502 373.551 490.109 372.578C499.891 371.795 509.462 369.311 518.391 365.239C525.399 361.995 537.894 351.919 540.044 344.177C546.069 322.472 455.124 322.994 441.16 323.042C425.539 323.097 409.795 323.595 394.186 323.018C387.62 322.775 381.151 321.533 374.743 320.171C368.361 318.815 361.93 319.16 355.457 318.589C328.465 316.212 301.412 316.56 274.334 316.56C265.523 316.56 256.707 316.485 247.89 316.51Z" fill="#DFF3E2"/>
<path d="M215.504 133.188C214.15 135.647 212.088 137.627 210.36 139.84C208.679 141.993 207.983 144.002 207.386 146.599C206.955 148.474 206.166 149.907 203.856 150.061C199.5 150.353 200.998 146.883 200.212 144.22C199.313 141.175 197.101 138.657 195.63 135.89C191.379 127.893 193.88 112.899 204.138 110.424C215.354 107.718 219.615 125.726 215.504 133.188Z" fill="#EACDB0"/>
<path d="M198.594 124.496C197.346 124.453 195.972 124.45 194.987 125.216C194.002 125.983 193.967 127.812 195.17 128.099C196.26 128.36 197.775 127.315 198.387 128.206C198.744 128.726 198.344 129.419 198.003 129.971C196.695 132.07 196.169 134.562 196.517 137.01C196.032 137.397 195.356 136.907 194.99 136.439C193.173 134.121 191.82 131.475 191.005 128.645C190.546 129.288 189.93 129.801 189.215 130.136C189.704 129.136 189.527 127.989 189.351 126.919C188.703 122.986 188.403 118.412 191.337 115.456C192.906 113.874 195.175 113.066 197.413 112.822C199.65 112.663 201.897 112.76 204.112 113.111C205.061 113.225 206.219 113.518 206.382 114.415C204.231 115.097 201.95 116.567 200.757 118.466C200.391 119.048 198.721 124.5 198.594 124.496Z" fill="#3B455A"/>
<path d="M203.699 115.542C203.618 115.591 203.539 115.641 203.462 115.692C202.462 116.341 201.509 117.152 200.34 117.386C198.654 117.723 196.94 116.795 195.273 117.236C193.409 117.73 192.053 119.813 190.631 121C188.281 122.942 185.503 124.299 182.527 124.96C181.013 125.301 179.464 125.461 177.913 125.434C177.136 125.485 176.355 125.423 175.596 125.25C174.699 124.935 174.762 124.522 175.76 124.282C178.891 123.53 180.17 119.307 180.151 116.443C180.136 114.182 179.536 111.775 180.549 109.754C181.322 108.21 182.79 107.492 184.217 106.682C185.791 105.789 187.396 106.181 189.134 105.824C190.948 105.452 192.498 104.162 194.336 103.94C196.277 103.706 198.126 104.696 200.012 105.211C201.576 105.636 203.211 105.738 204.815 105.509C206.248 105.304 207.667 104.836 209.109 104.957C211.236 105.135 213.095 106.609 214.208 108.43C215.783 111.006 216.607 115.274 215.748 118.447C215.881 117.955 214.335 116.02 214.018 115.605C213.349 114.729 212.525 113.893 211.42 113.677C208.92 113.189 205.836 114.22 203.699 115.542Z" fill="#3B455A"/>
<path d="M279.491 310.516C278.863 310.084 278.236 309.652 277.608 309.219L262.082 340.018L267.274 342.416L285.948 314.939C283.794 313.467 281.642 311.992 279.491 310.516Z" fill="#EBCEB1"/>
<path d="M267.601 341.453L272.314 348.813L270.019 351.711L258.97 343.643L262.077 339.363L267.601 341.453Z" fill="#080D19"/>
<path d="M315.529 312.92C314.78 312.783 314.03 312.644 313.281 312.505L311.686 346.959L317.404 347.028L323.229 314.322C320.662 313.857 318.095 313.39 315.529 312.92Z" fill="#EBCEB1"/>
<path d="M317.31 346.014L324.618 350.81L323.705 354.393L310.325 351.538L311.413 346.362L317.31 346.014Z" fill="#080D19"/>
<path d="M334.004 226.708L283.541 219.221L278.945 239.045L276.029 289.498L265.496 326.348L279.687 332.526L294.915 302.312L305.024 266.018L307.497 262.118L309.873 293.576L309.428 331.898L324.747 334.118L331.47 300.959L331.708 251.78L331.69 251.716L334.004 226.708Z" fill="#0F1A33"/>
<path d="M357.605 221.419C359.172 223.388 361.031 224.971 363.759 225.412C364.189 225.519 364.643 225.489 365.055 225.326C365.385 225.13 365.662 224.856 365.863 224.529C366.713 223.336 367.408 222.041 367.933 220.673C368.121 220.302 368.171 219.877 368.076 219.472C367.978 219.251 367.831 219.054 367.647 218.896C367.123 218.38 366.576 217.89 366.007 217.426C366.002 217.749 365.937 218.068 365.814 218.367C365.753 218.513 365.65 218.639 365.519 218.729C365.389 218.819 365.234 218.869 365.076 218.873C364.915 218.852 364.762 218.789 364.633 218.691C362.468 217.242 367.256 216.183 364.85 214.954C364.418 214.779 363.955 214.692 363.489 214.699C362.108 214.602 360.752 214.278 359.476 213.742C358.404 213.291 357.88 212.55 356.9 213.278C355.904 214.018 355.075 215.605 354.292 216.603C355.396 218.211 356.416 219.926 357.605 221.419Z" fill="#EBCEB1"/>
<path d="M353.688 216.657L358.473 211.562L338.302 191.663L330.537 161.612C329.952 159.345 328.533 157.381 326.565 156.113C324.596 154.844 322.222 154.363 319.915 154.766C318.572 155 317.297 155.526 316.18 156.307C315.063 157.087 314.13 158.103 313.449 159.283C312.767 160.463 312.353 161.779 312.235 163.136C312.117 164.494 312.298 165.861 312.766 167.141L323.926 197.663L353.688 216.657Z" fill="#469353"/>
<path d="M147.295 218.158C147.295 218.158 147.131 216.819 147.129 216.806C147.122 216.648 141.734 215.85 141.207 215.597C138.395 214.251 135.806 210.82 133.583 208.654C132.885 207.974 132.152 207.286 131.403 206.589C129.987 208.93 128.541 211.251 127.065 213.553C127.09 213.568 127.113 213.584 127.137 213.598C130.073 215.378 133.831 216.426 136.552 218.429C139.158 220.348 140.936 223.602 143.224 225.893L148.265 224.219L149.317 219.77L145.351 219.048L145.944 218.3L147.295 218.158Z" fill="#EACDB0"/>
<path d="M94.0504 163.519L107.285 201.714L135.967 219.845L139.687 213.524L116.987 190.574C114.164 187.72 114.705 173.209 114.187 169.265C112.748 158.32 111.362 148.89 97.3325 150.832C90.8558 151.729 93.547 158.65 94.0504 163.519Z" fill="#469353"/>
<path d="M85.4455 300.845L72.2561 317.82C66.707 325.595 59.734 332.356 54.1846 340.131C52.9088 341.919 51.9563 344.103 50.2073 345.508C48.4964 346.882 46.914 346.154 46.1749 344.239C45.1848 341.675 47.5243 339.217 48.7017 337.021C56.5453 322.397 62.898 307.267 70.2515 292.359C70.3479 292.164 70.4712 291.946 70.6844 291.901C70.8626 291.886 71.0401 291.938 71.1818 292.047C72.566 292.884 85.1607 301.211 85.4455 300.845Z" fill="#EACDB0"/>
<path d="M46.9765 340.253L43.6008 342.089L44.9038 351.053L49.483 355.283L53.1468 354.085L51.4845 343.109L46.9765 340.253Z" fill="#080D19"/>
<path d="M59.3443 232.634L60.6182 249.546L64.9506 293.838L47.2371 335.98L55.6474 339.577L92.5029 293.909L95.6905 229.681C95.6905 229.681 59.0829 233.942 59.3443 232.634Z" fill="#0F1A33"/>
<path d="M103.609 292.482L104.988 313.933C105.128 319.896 105.948 325.808 106.594 331.727C107.194 337.225 106.353 342.962 109.214 347.948C110.111 349.511 111.91 350.544 113.15 348.629C114.106 347.154 113.517 344.708 113.691 343.04C114.997 330.504 117.955 318.199 119.125 305.646C120.35 292.498 115.313 293.084 103.609 292.482Z" fill="#EACDB0"/>
<path d="M107.309 344.36L106.1 348.007L113.178 353.661L119.413 353.621L121.268 350.242L112.552 343.365L107.309 344.36Z" fill="#080D19"/>
<path d="M87.4943 229.762L105.683 339.271L117.892 339.964L120.931 276.623L114.112 221.254L86.499 222.573L87.4943 229.762Z" fill="#0F1A33"/>
<path d="M192.443 90.9546V95.0285C192.435 95.6561 192.677 96.2611 193.116 96.7104C193.554 97.1597 194.153 97.4165 194.781 97.4244H205.221C205.849 97.4165 206.447 97.1597 206.886 96.7104C207.324 96.2611 207.566 95.6561 207.558 95.0285V90.9546H192.443Z" fill="#A5A4A4"/>
<path d="M225.317 36.2543C225.317 21.922 213.982 10.3037 200.001 10.3037C186.019 10.3037 174.684 21.9221 174.684 36.2543C174.673 41.1445 176.026 45.9409 178.59 50.1052H178.589C185.633 62.2049 187.261 72.3395 187.261 72.3395H212.74C212.74 72.3395 214.368 62.2049 221.412 50.1052H221.411C223.975 45.9409 225.328 41.1444 225.317 36.2543Z" fill="#FEE042"/>
<path d="M186.968 72.3395V89.6454C186.96 89.9842 187.087 90.3125 187.32 90.5579C187.554 90.8034 187.876 90.946 188.215 90.9545H211.786C212.125 90.946 212.447 90.8034 212.681 90.5579C212.914 90.3125 213.041 89.9842 213.033 89.6454V72.3395H186.968Z" fill="#DBDAD9"/>
<path d="M224.867 31.3958C218.437 44.2823 205.949 64.19 187.25 72.2694L187.261 72.3395H212.74C212.74 72.3395 214.368 62.205 221.413 50.1052H221.412C223.976 45.9409 225.328 41.1445 225.317 36.2543C225.316 34.6245 225.165 32.9982 224.867 31.3958Z" fill="#FEE668"/>
<path opacity="0.73" d="M178.822 38.3887C178.822 25.8763 188.717 15.733 200.923 15.733C204.331 15.7415 207.689 16.5457 210.731 18.0813C213.773 19.6169 216.414 21.8415 218.443 24.578C216.55 21.1497 213.775 18.2891 210.406 16.2914C207.037 14.2936 203.195 13.2313 199.278 13.2141C187.072 13.2141 177.177 23.3575 177.177 35.8698C177.163 40.8487 178.772 45.6965 181.758 49.6804C179.825 46.2316 178.813 42.3425 178.822 38.3887Z" fill="#F7F7F7"/>
<path d="M195.078 72.3393L192.011 39.1217L196.284 42.7638L200.013 36.7091L203.792 42.5708L207.993 39.0902L204.924 72.3393H206.231L209.58 36.0596L204.088 40.6098L199.988 34.2502L195.976 40.7658L190.417 36.0281L193.77 72.3393H195.078Z" fill="#F6F7F7"/>
<path d="M193.464 69.0267L193.77 72.3394H195.077L194.7 68.2474C194.291 68.5125 193.879 68.7722 193.464 69.0267Z" fill="#EDECED"/>
<path d="M206.187 58.6493L204.924 72.3394H206.231L207.637 57.1072C207.162 57.6264 206.678 58.1404 206.187 58.6493Z" fill="#EDECED"/>
<path d="M213.033 76.6365H186.968V79.8324H213.033V76.6365Z" fill="#C1C1C1"/>
<path d="M213.033 83.4615H186.968V86.6574H213.033V83.4615Z" fill="#C1C1C1"/>
<path d="M201.258 83.4616H213.034V79.8324H205.77C204.34 81.1313 202.833 82.3433 201.258 83.4616Z" fill="#96928D"/>
<path d="M213.033 76.6365V72.3395H212.623C211.426 73.9012 210.217 75.3335 208.999 76.6365H213.033Z" fill="#96928D"/>
<path d="M188.215 90.9545H211.786C212.125 90.946 212.447 90.8034 212.681 90.5579C212.914 90.3125 213.041 89.9843 213.033 89.6454V86.6575H196.014C193.166 88.1398 190.141 89.2537 187.012 89.9722C187.073 90.247 187.225 90.4933 187.443 90.6714C187.661 90.8495 187.933 90.9492 188.215 90.9545Z" fill="#96928D"/>
<path d="M205.77 79.8324H213.034V76.6366H208.999C207.923 77.7937 206.846 78.859 205.77 79.8324Z" fill="#A5A4A4"/>
<path d="M196.014 86.6574H213.034V83.4615H201.258C199.587 84.6489 197.835 85.7168 196.014 86.6574Z" fill="#A5A4A4"/>
<path d="M207.558 93.4291C204.619 96.3307 198.987 97.2084 197.126 97.4245H205.221C205.848 97.4166 206.447 97.1598 206.886 96.7105C207.324 96.2612 207.566 95.6562 207.558 95.0286V93.4291Z" fill="#A09F9F"/>
<path d="M263.131 219.368C263.117 219.204 263.089 219.042 263.047 218.883C262.648 217.398 261.147 217.069 260.444 215.897C260.131 215.374 260.416 213.573 259.42 213.746C259.053 213.813 257.798 213.931 256.546 214.129C254.721 214.417 253.077 213.332 251.572 212.504L245.506 209.167C243.72 208.247 242.012 207.182 240.4 205.983C236.594 202.985 234.535 198.902 232.069 194.923C229.453 190.702 226.794 186.226 223.6 182.415C222.471 181.067 221.181 179.775 219.546 179.13C215.447 177.511 213.04 180.829 213.815 184.648C214.198 186.242 214.809 187.772 215.627 189.192C217.697 193.092 220.161 196.77 222.979 200.168C224.292 201.751 225.68 203.27 227.067 204.788C230.498 208.583 234.487 211.834 238.896 214.429C241.132 215.518 243.474 216.359 245.792 217.251C247.208 217.795 250.624 218.39 250.94 220.134C250.964 220.423 251.007 220.711 251.07 220.994C251.192 221.3 251.378 221.576 251.617 221.803C252.431 222.702 253.347 223.503 254.347 224.19C256.142 225.384 259.265 224.095 261.065 223.499C261.524 223.38 261.95 223.16 262.312 222.854C262.8 222.253 263.067 221.504 263.069 220.73C263.135 220.279 263.156 219.823 263.131 219.368Z" fill="#EACDB0"/>
<path d="M213.338 195.85C218.065 201.662 223.551 206.814 229.648 211.167L236.528 204.822C236.874 204.57 237.119 204.203 237.221 203.787C237.226 203.436 237.127 203.091 236.937 202.796C234.85 198.772 232.3 194.874 231.068 190.47C230.199 187.365 229.641 184.336 228.637 181.243C226.995 176.186 225.545 171.053 223.798 166.032C222.231 161.527 220.572 156.871 217.266 153.432C210.206 146.09 197.729 151.004 198.514 161.511C199.44 173.929 205.246 185.89 213.338 195.85Z" fill="#16274C"/>
<path d="M168.124 344.274C169.431 345.128 170.895 345.605 172.279 346.278C180.829 333.696 187.852 319.335 195.23 305.957L184.892 300.425C182.986 308.816 180.29 317.007 176.84 324.89C176.294 326.139 167.937 344.153 168.124 344.274Z" fill="#EACDB0"/>
<path d="M174.21 344.003C175.123 344.355 175.387 345.016 175.632 345.851C175.695 346.354 175.818 346.848 176 347.321C176.271 347.735 176.625 348.087 177.041 348.355C179.302 350.056 184.911 353.317 179.515 355.553C174.615 357.584 168.368 351.81 164.852 348.322C164.592 348.125 164.396 347.857 164.288 347.549C164.228 347.191 164.255 346.824 164.367 346.479C164.94 344.474 165.599 341.936 168.152 342.497C169.241 342.736 169.711 343.837 170.867 344.085C171.814 344.288 173.297 343.651 174.21 344.003Z" fill="#080D19"/>
<path d="M164.42 253.638C165.63 258.941 168.746 263.515 171.772 267.936C174.611 272.175 176.983 276.71 178.848 281.459C180.856 286.362 180.538 291.877 179.935 297.141C178.682 308.061 176.352 318.831 172.977 329.293L185.791 335.131C186.544 335.474 191.003 330.319 191.587 329.661C193.562 327.435 195.316 325.022 196.823 322.457C199.713 317.539 201.999 311.98 204.331 306.793C209.73 294.769 211.918 281.551 210.68 268.428C209.861 259.959 207.621 251.701 205.39 243.49C204.288 239.433 203.493 235.085 201.917 231.186C200.886 228.635 200.11 224.694 197.829 223.002C195.764 221.417 193.431 221.147 190.62 221.287C183.099 221.661 172.415 220.819 167.135 227.197C161.364 234.168 162.624 245.767 164.42 253.638Z" fill="#356E3E"/>
<path d="M215.934 349.337C217.484 349.526 219.008 349.309 220.547 349.303C222.669 334.239 222.636 318.253 223.356 302.994L211.637 302.588C213.628 310.96 214.822 319.5 215.204 328.096C215.265 329.458 215.713 349.31 215.934 349.337Z" fill="#EACDB0"/>
<path d="M221.276 346.409C222.251 346.322 222.78 346.799 223.368 347.44C223.71 347.812 223.92 348.315 224.347 348.597C224.772 348.849 225.246 349.009 225.737 349.067C228.517 349.596 234.989 350.048 231.133 354.435C227.631 358.419 219.478 355.992 214.784 354.412C214.464 354.35 214.169 354.196 213.936 353.967C213.725 353.673 213.587 353.332 213.535 352.973C213.164 350.92 212.636 348.352 215.175 347.729C216.258 347.463 217.165 348.245 218.312 347.957C219.252 347.721 220.302 346.495 221.276 346.409Z" fill="#080D19"/>
<path d="M199.118 262.086C201.728 271.291 203.878 280.504 206.665 289.656C210.202 301.277 212.056 313.344 212.173 325.49C212.219 330.4 211.988 335.379 213.134 340.154L225.965 338.499C230.035 320.476 233.557 301.928 232.182 283.388C230.812 264.918 225.644 246.978 220.272 229.341C219.534 226.917 218.793 224.495 218.047 222.074C217.601 220.617 217.12 219.1 216.052 218.013C214.937 216.876 213.337 216.371 211.782 216.025C206.021 214.755 200.02 215.117 194.453 217.07C193.349 217.376 192.347 217.971 191.552 218.795C190.444 220.126 190.459 222.036 190.584 223.763C191.537 236.92 195.537 249.461 199.118 262.086Z" fill="#356E3E"/>
<path d="M185.441 151.815C183.785 152.972 182.256 154.3 180.878 155.777C176.42 160.643 172.836 166.241 170.282 172.325C164.406 186.185 163.276 201.402 162.217 216.317C161.864 221.281 161.511 226.245 161.159 231.209C160.811 236.093 161.158 237.178 166.33 236.951C175.914 236.53 185.932 235.305 194.84 231.633C199.079 229.885 203.087 227.569 207.495 226.28C213.906 224.405 220.24 226.005 226.528 224.957C225.294 219.922 223.254 215.25 222.513 210.012C221.841 204.759 221.545 199.465 221.629 194.17C221.649 186.735 221.334 179.307 221.195 171.875C221.087 166.098 221.11 159.318 217.558 154.415C216.352 152.703 214.716 151.339 212.814 150.461C211.432 149.868 208.926 149.485 208.111 148.035C208.047 147.896 208.019 147.744 208.028 147.591C207.991 145.749 208.567 144.08 206.772 143.421C205.772 143.055 204.346 143.093 203.29 143.028C201.798 142.936 198.038 142.575 197.61 144.67C197.555 145.233 197.452 145.791 197.302 146.336C197.257 146.47 197.179 146.591 197.076 146.687C196.927 146.792 196.754 146.858 196.573 146.88C192.568 147.759 188.782 149.438 185.441 151.815Z" fill="#1E3465"/>
<path d="M146.154 224.427C146.311 224.381 146.464 224.321 146.612 224.248C147.988 223.562 148.013 222.026 149.022 221.104C149.472 220.693 151.294 220.616 150.927 219.674C150.789 219.327 150.423 218.121 149.981 216.934C149.336 215.202 150.072 213.375 150.585 211.737L152.65 205.129C153.197 203.196 153.902 201.311 154.757 199.493C156.94 195.167 160.533 192.339 163.944 189.131C167.561 185.73 171.42 182.235 174.522 178.348C175.618 176.974 176.629 175.453 176.937 173.722C177.709 169.384 173.979 167.685 170.389 169.203C168.903 169.896 167.524 170.798 166.294 171.882C162.883 174.685 159.768 177.83 156.996 181.267C155.706 182.868 154.493 184.529 153.28 186.19C150.242 190.306 147.848 194.861 146.18 199.697C145.556 202.104 145.198 204.567 144.784 207.015C144.531 208.511 144.627 211.977 142.981 212.632C142.702 212.713 142.428 212.813 142.163 212.931C141.887 213.111 141.654 213.349 141.479 213.627C140.76 214.604 140.157 215.661 139.682 216.777C138.867 218.773 140.752 221.577 141.694 223.223C141.901 223.649 142.202 224.022 142.573 224.317C143.259 224.675 144.047 224.788 144.806 224.636C145.261 224.612 145.713 224.541 146.154 224.427Z" fill="#EACDB0"/>
<path d="M160.712 171.648C159.671 172.715 158.658 173.808 157.7 174.95C154.133 179.208 151.379 184.084 149.573 189.337C151.776 192.063 154.218 194.586 156.87 196.877C167.476 188.241 178.953 182.198 190.62 175.288C194.724 172.857 198.959 170.307 201.673 166.384C206.674 159.154 201.549 148.693 192.498 149.183C181.547 149.775 171.614 161.034 164.237 168.171C163.051 169.319 161.864 170.467 160.712 171.648Z" fill="#16274C"/>
<path d="M117.764 195.929C117.57 188.569 116.764 181.238 115.352 174.012C113.494 164.761 111.054 155.301 105.29 147.83C99.5262 140.36 89.642 135.331 80.5515 137.863C74.9887 139.412 70.418 143.563 67.3269 148.44C64.2358 153.317 62.4694 158.906 60.9994 164.489C56.8246 180.343 56.4938 196.256 54.8147 212.485C54.0826 219.561 52.2041 227.11 53.5777 234.214C53.541 234.024 66.0652 233.463 67.5817 233.419C75.1289 233.197 82.5025 233.948 90.0147 234.323C96.0812 234.626 100.848 233.055 106.859 235.726C108.878 236.623 110.764 237.897 112.927 238.35C113.164 238.425 113.413 238.452 113.661 238.428C113.908 238.405 114.148 238.331 114.367 238.213C114.568 238.022 114.729 237.792 114.84 237.538C114.952 237.283 115.01 237.009 115.014 236.731C116.893 223.475 118.194 209.594 117.764 195.929Z" fill="#7DD08C"/>
<path d="M96.1734 110.252C97.4421 112.579 98.1407 115.173 98.2119 117.822C98.2413 118.523 98.2876 119.332 98.8534 119.747C99.459 120.191 98.924 121.161 99.3864 120.57C99.8488 119.978 101.42 117.924 101.492 117.176C101.661 115.424 101.662 113.659 101.495 111.907C101.35 110.384 101.043 108.792 100.048 107.629C99.4224 106.97 98.6958 106.415 97.8957 105.984C96.8096 105.236 95.5982 104.689 94.3189 104.369C92.0901 103.949 90.7211 104.746 92.6853 106.304C94.0942 107.38 95.2791 108.722 96.1734 110.252Z" fill="#3B455A"/>
<path d="M82.1826 140.117C82.1953 141.195 81.9719 142.314 82.9219 143.152C83.4073 143.526 83.9882 143.755 84.598 143.814C86.1595 144.063 87.7572 143.953 89.2698 143.492C89.8998 143.33 90.4836 143.024 90.9748 142.598C91.1982 142.374 91.3689 142.102 91.4744 141.804C91.5799 141.506 91.6176 141.188 91.5849 140.873C91.6175 140.06 91.7835 139.234 91.8917 138.41C92.1281 136.607 92.2366 134.789 92.2923 132.973C94.9646 132.52 98.1082 131.663 99.0271 128.867C99.2717 127.963 99.3763 127.026 99.3373 126.09C99.3736 122.214 99.4099 118.338 99.4463 114.462C99.5385 113.124 99.3901 111.781 99.0083 110.495C98.2071 108.31 96.1626 107.005 94.1567 106.182C89.0379 104.082 83.0665 104.153 78.3319 107.116C77.0102 107.877 75.9139 108.975 75.1544 110.298C74.0324 112.425 74.1676 115.054 74.3361 117.512L74.8028 124.316C74.9818 126.925 75.3674 129.928 77.3903 131.31C78.4645 132.044 79.8542 132.181 80.7793 133.129C82.3938 134.785 81.6178 137.251 82.0919 139.255C82.1538 139.538 82.1842 139.827 82.1826 140.117Z" fill="#EACDB0"/>
<path d="M100.281 124.547C100.239 123.828 99.929 121.721 98.8451 123.043C98.5864 123.424 98.4559 123.878 98.4727 124.338C98.4894 124.799 98.4408 125.26 98.3282 125.707C97.9927 126.702 96.8893 127.153 95.9072 127.134C95.5127 127.14 95.123 127.047 94.7737 126.864C94.4452 126.649 94.1548 126.381 93.9144 126.07C93.2855 125.346 92.6567 124.621 92.0279 123.897C90.947 122.652 88.7968 123.185 87.3367 123.372C85.6171 123.531 83.975 124.162 82.5923 125.197C82.4534 125.308 82.3177 125.425 82.1817 125.542C81.8651 125.837 81.5118 126.091 81.1304 126.296C79.8295 126.926 78.2219 126.263 77.3135 125.078C76.897 124.534 76.509 123.836 75.8611 123.743C75.5987 123.732 75.3388 123.799 75.1141 123.935C74.8895 124.071 74.71 124.27 74.5983 124.508C74.3619 125.005 74.2362 125.547 74.2298 126.098C74.056 128.1 74.4016 130.113 75.2332 131.942C77.1075 135.797 80.7452 136.277 84.4026 136.198L88.7397 136.105C91.3826 136.048 94.1765 135.944 96.4059 134.412C98.3725 133.061 99.5446 130.76 100.028 128.348C100.274 127.097 100.359 125.819 100.281 124.547ZM90.6005 129.985C89.9442 130.41 89.1983 130.677 88.4214 130.766C87.6444 130.854 86.8575 130.762 86.1224 130.495C85.4635 130.295 85.7456 129.189 86.4055 129.389C87.0034 129.616 87.6463 129.698 88.2819 129.629C88.9175 129.561 89.528 129.343 90.0639 128.995C90.6476 128.604 91.1806 129.597 90.6005 129.985Z" fill="#3B455A"/>
<path d="M100.875 103.545C101.133 102.605 101.323 101.649 101.445 100.683C100.545 100.995 99.5811 101.076 98.6417 100.917C98.6406 100.36 98.6396 99.8028 98.6385 99.2453C98.6354 98.7817 92.3639 98.4443 91.8545 98.4014C87.0841 98.0003 82.7215 97.6192 78.4019 100.171C74.7121 102.35 72.3426 105.611 71.7684 109.861C71.22 113.921 72.5383 119.228 74.8803 122.603C74.8691 121.522 74.2521 118.97 74.5092 117.943C74.6762 116.914 75.0174 115.921 75.5182 115.006C76.53 113.176 77.9982 111.639 79.78 110.545C82.6278 108.867 85.797 107.806 89.0815 107.433C92.0576 107.025 95.684 106.65 98.6215 107.444C100.034 107.825 100.267 108.18 101.126 106.756C101.613 105.725 102.026 104.66 102.362 103.57L100.875 103.545Z" fill="#3B455A"/>
<path d="M288.463 158.206C291.625 154.15 296.059 151.929 301.169 148.713C302.024 148.115 302.961 147.642 303.95 147.31C304.649 147.134 305.365 147.036 306.086 147.016C310.456 146.771 318.686 146.108 322.409 148.76C326.306 151.536 327.034 158.163 327.86 162.451C332.03 184.083 332.994 211.972 333.805 234.061C331.164 233.234 328.556 232.231 325.956 231.242C313.243 229.915 298.243 230.452 286.472 231.656C282.757 232.815 279.069 234.084 275.399 235.39C276.338 235.056 276.316 217.706 276.445 215.78C276.914 208.806 277.529 201.838 278.46 194.908C279.894 184.229 281.759 173.627 285.545 163.502C286.239 161.597 287.224 159.811 288.463 158.206Z" fill="#6BA975"/>
<path d="M95.7775 232.968H27.2419V277.412H95.7775V232.968Z" fill="#7DD08C"/>
<path d="M75.3212 232.445H71.5753V224.913H51.444V231.731H47.6982V223.889C47.6793 223.134 47.9608 222.403 48.4807 221.856C49.0007 221.309 49.7166 220.99 50.4713 220.97H72.5481C73.3027 220.99 74.0187 221.309 74.5386 221.856C75.0586 222.403 75.34 223.134 75.3212 223.889V232.445Z" fill="#080D19"/>
<path opacity="0.13" d="M95.7774 242.319L65.1588 247.593L65.1496 248.082L59.8209 250.059L57.8857 250.777L60.3555 252.043V253.402C60.3512 253.579 60.4173 253.75 60.5392 253.878C60.6611 254.006 60.8288 254.081 61.0055 254.085H62.8256C63.0023 254.08 63.17 254.006 63.2919 253.878C63.4137 253.75 63.4798 253.579 63.4755 253.402V252.043H66.5637L66.6262 248.812L95.7776 245.19L95.7774 242.319Z" fill="black"/>
<path d="M95.7777 243.419L62.5381 248.813L27.2422 243.419V230.655H95.7777V243.419Z" fill="#0F1A33"/>
<path d="M66.189 246.841H56.9179L56.8555 251.856H59.9496V253.215C59.9454 253.392 60.0114 253.563 60.1333 253.691C60.2552 253.819 60.4229 253.893 60.5996 253.898H62.4197C62.5964 253.893 62.7641 253.819 62.8859 253.691C63.0078 253.563 63.0739 253.392 63.0696 253.215V251.856H66.1577L66.189 246.841Z" fill="#080D19"/>
<path d="M58.8485 224.934C58.8485 224.934 59.7505 223.932 59.7598 223.922C59.8742 223.813 56.9378 219.226 56.7822 218.663C55.9513 215.658 56.8381 211.453 57.0124 208.354C57.0672 207.382 57.1052 206.377 57.1383 205.354C54.4432 205.823 51.7428 206.257 49.0371 206.656C49.0419 206.684 49.0454 206.712 49.0502 206.74C49.6359 210.122 51.3134 213.644 51.5893 217.011C51.8533 220.237 50.5663 223.715 50.3405 226.945L54.9136 229.646L58.9602 227.518L56.9005 224.053L57.8537 224.009L58.8485 224.934Z" fill="#EACDB0"/>
<path d="M65.0954 148.905L44.9771 183.967L50.1372 217.5L57.3479 216.155L59.7513 183.967L84.4048 156.071C85.7987 154.494 86.5126 152.43 86.391 150.329C86.2694 148.228 85.3222 146.26 83.7557 144.854L81.4845 142.816C79.9304 141.421 77.8913 140.691 75.805 140.783C73.7187 140.874 71.7515 141.78 70.326 143.306L65.0954 148.905Z" fill="#7DD08C"/>
<path d="M254.772 215.146C253.367 217.234 252.419 219.483 252.821 222.217C252.85 222.66 253.015 223.083 253.295 223.427C253.582 223.682 253.926 223.864 254.298 223.956C255.692 224.407 257.137 224.679 258.6 224.766C259.01 224.833 259.431 224.753 259.788 224.54C259.969 224.38 260.113 224.181 260.208 223.957C260.542 223.302 260.844 222.633 261.115 221.95C260.805 222.044 260.481 222.078 260.159 222.05C260.001 222.036 259.85 221.977 259.725 221.879C259.6 221.781 259.506 221.65 259.454 221.5C259.426 221.34 259.44 221.175 259.494 221.022C260.222 218.521 262.677 222.766 263.123 220.102C263.16 219.637 263.102 219.17 262.955 218.727C262.631 217.381 262.531 215.991 262.657 214.613C262.764 213.456 263.312 212.733 262.322 212.018C261.316 211.292 259.552 210.98 258.364 210.534C257.165 212.072 255.837 213.562 254.772 215.146Z" fill="#EBCEB1"/>
<path d="M258.131 209.976L264.434 213L277.322 187.767L303.633 171.298C305.618 170.056 307.063 168.111 307.679 165.852C308.294 163.593 308.036 161.184 306.956 159.106C306.328 157.897 305.441 156.841 304.36 156.011C303.279 155.182 302.028 154.6 300.698 154.306C299.367 154.013 297.988 154.014 296.658 154.312C295.327 154.609 294.079 155.194 293 156.027L267.263 175.874L258.131 209.976Z" fill="#6BA975"/>
<path d="M442.167 147.567L417.8 137.903C417.8 137.903 409.14 159.409 399.296 193.86C389.451 228.31 403.867 272.164 403.867 272.164C403.867 272.164 459.69 258.899 470.838 256.712L456.855 193.739L442.167 147.567Z" fill="#1E3465"/>
<path d="M477.615 156.796L483.359 150.484L480.937 147.747L476.106 151.14L475.524 149.279L471.225 155.319L473.382 158.527L477.615 156.796Z" fill="#EBCEB1"/>
<path d="M427.924 140.041L442.528 167.509L472.973 151.241L476.399 158.181L441.512 188.124L408.324 153.16L427.924 140.041Z" fill="#16274C"/>
<path d="M421.158 218.403L408.949 244.228L405.732 292.559L380.642 332.843L389.022 339.068L430.192 303.621L440.632 266.757L451.12 226.878L421.158 218.403Z" fill="#0F1A33"/>
<path d="M456.786 233.032L464.2 282.23L459.328 346.787L451.952 348.033L437.056 288.268L416.725 229.422L456.786 233.032Z" fill="#0F1A33"/>
<path d="M388.255 337.544L391.785 348.359L387.953 351.184L376.683 337.299L381.987 333.029L388.255 337.544Z" fill="#080D19"/>
<path d="M458.928 345.251L469.435 349.616L469.083 354.363L451.205 353.871L451.418 347.066L458.928 345.251Z" fill="#080D19"/>
<path d="M442.974 113.768C436.339 114.256 430.136 108.808 423.606 110.161C419.36 111.04 416.008 114.805 414.713 119.049C414.042 121.016 413.963 123.137 414.486 125.149C414.895 126.414 415.549 127.586 416.41 128.599C417.523 129.956 418.874 131.099 420.397 131.973C419.566 133.312 418.615 134.573 417.557 135.74C420.617 136.912 423.676 138.084 426.736 139.255C427.412 137.497 428.089 135.739 428.765 133.981C429.688 133.934 430.604 133.795 431.5 133.566C434.247 132.79 436.733 131.286 438.695 129.213C440.658 127.14 442.023 124.576 442.648 121.791C443.215 119.164 443.106 116.447 442.974 113.768Z" fill="#EBCEB1"/>
<path d="M441.299 115.77L420.784 113.332L416.802 129C411.962 125.16 406.952 119.706 407.202 112.874C407.334 111.377 407.697 109.91 408.278 108.524C409.144 106.117 410.011 103.71 410.877 101.303C412.855 95.8086 413.842 98.1694 418.361 98.5478C421.348 98.7979 424.527 98.5394 427.531 98.4748C430.791 98.4046 434.064 98.4147 437.321 98.264C440.764 98.1047 442.222 95.2561 445.517 95.4281C446.879 95.4994 448.301 95.7665 449.57 95.2643C450.94 94.7219 451.906 93.3561 453.336 92.9996C454.613 92.6811 455.934 93.2497 457.085 93.8892C458.249 94.536 459.434 95.3557 459.894 96.6047C460.106 97.278 460.187 97.9856 460.133 98.6893C459.786 110.441 452.297 114.651 443.742 120.409L441.299 115.77Z" fill="#3B455A"/>
<path d="M433.336 141.681L408.969 132.016C408.969 132.016 400.309 153.523 390.464 187.973C380.62 222.424 395.035 266.278 395.035 266.278C395.035 266.278 444.971 241.607 456.119 239.42L448.024 187.852L433.336 141.681Z" fill="white"/>
<path d="M390.096 188.709C399.941 154.258 408.601 132.752 408.601 132.752L432.968 142.417L433.007 142.541C432.468 143.949 431.904 145.349 431.415 146.776C429.48 152.408 428.063 158.205 427.182 164.095C425.642 174.446 425.48 185.089 425.811 195.535C426.122 205.564 427.169 215.556 428.943 225.432C431.338 238.448 435.004 251.197 439.889 263.497C417.225 268.102 390.552 273.546 390.552 273.546C390.552 273.546 380.252 223.16 390.096 188.709Z" fill="#1E3465"/>
<path d="M482.192 185.808C483.112 185.743 483.97 185.315 484.575 184.618C485.18 183.922 485.483 183.013 485.419 182.092L473.59 14.2368L466.647 14.726L478.475 182.582C478.54 183.502 478.968 184.359 479.665 184.964C480.362 185.569 481.271 185.873 482.192 185.808Z" fill="#16274C"/>
<path d="M479.135 84.472C462.76 76.1797 449.74 75.0146 441.039 75.4034C419.369 76.3714 409.296 87.6566 381.778 92.1745C371.962 93.7843 361.988 94.2037 352.071 93.4233C349.149 82.0063 347.19 70.3646 346.213 58.6203C344.906 42.9066 341.908 26.2558 343.132 15.145C349.587 16.0452 363.09 19.7431 374.865 18.2285C403.731 14.5164 414.561 0.614931 438.28 0.0195719C446.607 -0.189407 458.751 1.18556 473.82 9.05361C475.592 34.193 477.364 59.3325 479.135 84.472Z" fill="#5DC46F"/>
<path d="M360.262 221.105C359.911 221.792 359.715 222.549 359.688 223.32C359.719 225.027 361.204 226.428 362.836 226.929C364.468 227.431 366.222 227.231 367.917 227.026C368.273 226.202 368.426 225.304 368.362 224.408C368.732 224.058 369.123 224.801 369.527 225.112C370.09 225.545 370.946 224.959 371.105 224.266C371.263 223.574 371.006 222.863 370.912 222.159C370.567 219.586 372.389 217.233 372.764 214.664C372.663 215.359 368.97 212.998 368.844 212.978C367.083 212.704 367.697 212.425 366.036 213.377C363.721 214.705 361.322 218.738 360.262 221.105Z" fill="#EBCEB1"/>
<path d="M408.601 132.752L376.683 172.479L364.541 214.629L372.322 218.403L387.024 188.124L418.306 156.154L408.601 132.752Z" fill="#16274C"/>
<path d="M427.706 158.768C426.551 160.704 425.22 162.605 423.357 163.875C421.441 165.07 419.26 165.774 417.007 165.924C407.018 166.972 396.644 161.656 391.661 152.938C391.152 152.047 390.648 151.077 389.755 150.573C388.901 150.189 387.957 150.05 387.028 150.169C382.094 150.377 377.18 150.929 372.322 151.822C372.955 157.686 375.12 163.281 378.601 168.044C382.081 172.806 386.754 176.569 392.15 178.953C397.085 181.062 402.469 181.934 407.827 182.231C412.915 182.513 418.111 182.278 422.934 180.634C427.757 178.99 432.2 175.807 434.572 171.298C439.003 162.874 435.35 152.548 436.667 143.122C437.461 137.438 431.355 144.939 431.138 145.431C430.867 146.044 431.757 149.618 431.549 150.755C431.062 153.416 429.079 156.465 427.706 158.768Z" fill="#5DC46F"/>
<path d="M300.384 155.24C298.258 158.967 298.027 164.017 299.989 168.805C301.894 173.453 304.126 172.388 308.008 175.577C301.396 180.246 301.021 194.216 300.841 202.307C300.701 208.641 301.1 214.975 302.036 221.241C302.316 223.12 302.375 228.606 303.992 229.795C305.576 230.961 310.402 229.633 312.462 229.918C314.354 217.119 316.248 204.303 317.128 191.394C317.277 189.215 317.392 186.988 316.814 184.883C316.236 182.777 315.717 176.321 313.663 175.577C320.021 170.652 320.619 166.156 320.57 158.114C320.558 156.016 320.412 153.745 319.063 152.137C317.474 150.241 314.75 149.868 312.288 149.627C306.597 149.07 302.528 151.483 300.384 155.24Z" fill="white"/>
<path d="M301.961 123.886C306.86 114.854 321.76 113.765 323.175 125.371C323.601 128.859 323.593 132.487 322.324 135.788C321.055 139.089 318.348 142.024 314.836 142.911C314.816 142.916 314.797 142.918 314.777 142.923C314.173 143.073 315.911 149.241 316.021 149.729C316.225 150.485 316.338 151.262 316.359 152.045C316.336 153.781 315.412 155.381 314.422 156.838C313.515 158.173 312.535 159.458 311.486 160.685C311.402 160.8 311.291 160.893 311.163 160.955C310.842 161.081 310.507 160.822 310.269 160.579C308.374 158.644 306.827 156.397 305.694 153.937C305.417 153.39 305.227 152.804 305.131 152.199C305.081 151.504 305.152 150.806 305.341 150.136C305.783 148.248 308.554 143.95 307.906 142.258C307.659 141.615 305.901 140.805 305.349 140.29C304.445 139.433 303.66 138.458 303.016 137.392C300.595 133.46 299.693 128.067 301.961 123.886Z" fill="#EACDB0"/>
<path d="M322.321 128.296C323.329 131.072 322.536 134.033 321.49 136.692C320.467 139.292 320.161 141.982 318.884 144.5C319.085 144.98 319.816 144.848 320.304 144.632C323.164 143.368 326.007 142.065 328.831 140.724C329.123 140.608 329.389 140.434 329.611 140.211C329.84 139.893 329.976 139.517 330.004 139.126C331.19 131.544 329.421 125.44 326.433 118.616C324.982 115.302 320.054 110.925 316.035 113.645C315.174 114.33 314.526 115.245 314.164 116.284C313.87 116.863 313.7 117.496 313.663 118.144C313.675 120.713 316.099 121.092 317.789 122.276C319.871 123.781 321.45 125.879 322.321 128.296Z" fill="#3B455A"/>
<path d="M303.378 129.391C302.909 131.653 302.789 133.973 303.021 136.272C303.089 137.026 304.115 138.966 304.047 139.452C303.85 140.859 300.119 143.465 299.062 144.505L286.864 134.12C286.53 133.883 286.267 133.561 286.101 133.187C286.015 132.829 286.022 132.455 286.122 132.1C287.512 125.017 290.888 119.107 295.183 113.351C299.476 107.598 306.97 103.783 314.264 105.813C320.157 107.453 323.348 112.566 319.78 117.984C317.086 122.075 311.081 121.775 307.219 124.136C304.794 125.618 303.784 127.39 303.378 129.391Z" fill="#3B455A"/>
<path d="M87.6378 205.62C87.3185 207.276 86.9686 208.97 87.2324 210.635C87.7474 213.886 90.4304 216.293 92.9463 218.416C96.3968 216.563 98.3289 212.658 98.9044 208.784C99.48 204.911 98.9184 200.973 98.5757 197.072C97.202 181.434 99.1324 164.639 91.3519 151.004L94.1522 150.085C94.6347 147.385 90.8918 145.79 88.261 146.566C86.6827 147.032 84.5559 148.697 84.3692 150.478C83.9875 154.118 86.3438 151.883 87.564 153.542C90.2182 157.151 89.7209 165.738 89.9798 170.221C90.6663 182.072 89.8796 193.963 87.6378 205.62Z" fill="#469353"/>
</g>
<defs>
<clipPath id="clip0">
<rect width="540.33" height="374.005" fill="white"/>
</clipPath>
</defs>
</svg>
