<svg width="541" height="345" viewBox="0 0 541 345" fill="none" xmlns="http://www.w3.org/2000/svg">
<g clip-path="url(#clip0)">
<path d="M41.2066 339.235C63.9643 339.235 82.4131 338.474 82.4131 337.536C82.4131 336.597 63.9643 335.836 41.2066 335.836C18.4488 335.836 0 336.597 0 337.536C0 338.474 18.4488 339.235 41.2066 339.235Z" fill="#DFF3E2"/>
<path d="M47.7812 157.249L44.9065 189.891L49.6356 213.47L49.6911 220.81C49.6911 220.81 55.4772 207.131 56.8541 201.792C58.231 196.453 57.3688 191.893 55.2547 176.1C53.1406 160.307 47.7812 157.249 47.7812 157.249Z" fill="#BEE7C5"/>
<path d="M21.5578 329.346C20.3155 324.69 17.2504 329.346 17.2504 329.346L15.0857 337.536H36.7282C36.7282 337.536 22.8004 334.003 21.5578 329.346Z" fill="#1E3465"/>
<path d="M49.0123 328.835C47.7698 323.888 44.7048 328.835 44.7048 328.835L42.54 337.536H64.1824C64.1824 337.536 50.2548 333.782 49.0123 328.835Z" fill="#1E3465"/>
<path d="M17.5793 216.221C12.2839 226.089 18.4238 272.862 18.7578 275.531C19.0917 278.2 16.9776 283.872 16.0871 289.989C15.1967 296.106 16.7547 329.102 16.7547 329.102C17.6105 329.492 18.5402 329.695 19.4809 329.695C20.4217 329.695 21.3514 329.492 22.2071 329.102C22.2071 329.102 29.4397 282.315 30.1074 278.311C30.7752 274.307 31.6651 234.157 31.6651 234.157L35.0838 234.268C35.0838 234.268 39.6767 285.874 38.4528 291.769C37.2289 297.664 43.6826 328.36 43.6826 328.36C44.5748 328.829 45.5676 329.074 46.5756 329.074C47.5836 329.074 48.5764 328.829 49.4686 328.36C48.801 321.02 48.9122 261.962 50.3589 246.391C51.1399 235.419 50.8978 224.398 49.6357 213.47C49.6357 213.47 22.8748 206.352 17.5793 216.221Z" fill="#1E3465"/>
<path d="M17.5792 216.221C17.5792 216.221 15.6505 217.966 15.5638 227.194C18.1022 225.325 21.1633 224.298 24.3161 224.26C29.4579 224.26 48.4166 219.523 50.0078 217.014L49.6356 213.47L17.5792 216.221Z" fill="#16274C"/>
<path d="M40.0045 151.826L23.431 154.913C23.431 154.913 18.0905 162.337 17.3389 163.087C17.3389 163.087 20.8439 166.424 20.8439 181.188C20.859 191.487 19.909 201.764 18.0065 211.885C17.2554 215.389 17.0051 216.389 18.5072 216.89C20.0094 217.39 40.8729 224.314 49.6356 213.47C49.6356 213.47 49.552 199.707 50.3031 192.533C51.0542 185.359 51.8887 163.838 48.2168 157.916C44.5448 151.993 40.0045 151.826 40.0045 151.826Z" fill="#DFF3E2"/>
<path d="M38.6196 107.116C32.5275 104.697 29.5232 107.533 29.5232 107.533L43.2072 122.678C43.2072 122.678 44.7119 109.535 38.6196 107.116Z" fill="#09142C"/>
<path d="M27.5206 154.412L33.4457 157.165L39.2875 153.411L39.7041 144.069L26.3743 146.333L27.5206 154.412Z" fill="#F6B07F"/>
<path d="M33.0393 154.913C28.939 155.538 31.4701 161.626 31.4701 161.626C31.4701 161.626 32.5275 164.463 34.2382 164.63C35.949 164.797 36.9459 160.522 36.9459 160.522C36.9459 160.522 37.1398 154.287 33.0393 154.913Z" fill="#33584E"/>
<path d="M33.0394 164.049C33.301 169.237 30.1631 219.365 30.1631 219.365C31.8322 222.312 34.447 228.763 34.447 228.763C39.009 222.868 39.7044 218.808 39.7044 218.808C41.2902 184.942 36.0735 162.979 36.0735 162.979C36.0735 162.979 32.7778 158.861 33.0394 164.049Z" fill="#33584E"/>
<path d="M48.968 200.207C46.2557 203.127 41.4716 203.467 41.4716 203.467L40.9146 204.878L49.1348 207.297L54.4927 206.303C49.4189 204.265 48.968 200.207 48.968 200.207Z" fill="white"/>
<path d="M29.5232 107.533C21.2612 107.783 19.8426 112.121 19.8426 112.121C19.8426 112.121 19.0914 119.878 19.0914 125.968C19.0914 132.057 23.5979 141.233 25.1837 144.819C26.7694 148.406 33.6958 148.74 39.2872 147.322C44.8785 145.904 44.7119 127.635 42.7086 120.462C40.7054 113.289 37.7851 107.283 29.5232 107.533Z" fill="#FFCD9C"/>
<path d="M19.0915 110.286C13.3332 110.036 15.503 120.296 16.421 123.632C17.3389 126.969 19.6607 137.004 21.5876 136.449L20.0573 131.863C20.0573 131.863 19.0915 127.575 21.1779 127.814C23.2644 128.053 23.7649 131.39 24.5994 130.639C25.4339 129.888 24.8498 110.536 19.0915 110.286Z" fill="#09142C"/>
<path d="M26.6605 148.35C24.9365 150.155 23.8091 152.446 23.4309 154.912C24.7549 159.142 27.5339 162.767 31.2757 165.145C31.2757 165.145 31.4094 157.026 33.0393 154.912C31.5481 154.373 30.1991 153.502 29.094 152.365C27.989 151.229 27.1568 149.856 26.6605 148.35Z" fill="#F2EBD1"/>
<path d="M39.4686 149.352C38.1499 151.608 36.2903 153.499 34.0575 154.857C34.0575 154.857 37.4513 158.194 37.5625 165.145C37.5625 165.145 41.2365 162.034 41.9578 152.466C41.3532 151.267 40.5055 150.206 39.4686 149.352Z" fill="#F2EBD1"/>
<path d="M37.6184 200.791L35.3232 204.253L31.9017 206.922V210.801L41.2066 209.049C48.7593 209.466 56.8542 205.838 56.8542 205.838C46.2141 208.674 37.6184 200.791 37.6184 200.791Z" fill="#F9EED2"/>
<path d="M33.1952 207.714C33.7982 206.498 34.5104 205.34 35.3232 204.252C33.2854 205.173 31.086 205.682 28.851 205.752C28.851 205.752 24.8914 207.798 26.5122 210.547C28.1331 213.296 30.8167 212.677 33.9462 213.053C37.0756 213.428 41.2066 209.049 41.2066 209.049C37.4097 209.883 33.07 208.382 33.1952 207.714Z" fill="#FFCD9C"/>
<path d="M20.8408 180.5C20.8408 180.5 20.2304 200.73 18.3757 209.99C20.386 205.691 21.7766 201.128 22.5061 196.439C23.9227 188.1 22.0125 178.019 22.0125 178.019L20.8408 180.5Z" fill="#BEE7C5"/>
<path d="M15.4195 195.619C14.4181 193.701 22.0124 178.018 22.0124 178.018C22.0124 178.018 22.0124 162.003 17.3389 163.087C17.3389 163.087 14.1952 164.088 10.8573 180.437C7.51945 196.787 7.07415 200.568 10.8573 203.238C14.6405 205.907 26.3739 210.801 26.3739 210.801C27.423 208.936 28.3359 206.999 29.1055 205.003C29.1055 205.003 16.4209 197.538 15.4195 195.619Z" fill="#BEE7C5"/>
<path d="M15.4195 195.619C15.4005 194.22 15.6668 192.833 16.2022 191.54C17.1273 189.05 20.6298 180.956 20.6298 180.956L22.0123 178.019C22.0123 178.019 16.3707 186.448 15.4115 189.752C14.83 191.665 14.8328 193.708 15.4195 195.619Z" fill="#5DC46F"/>
<path d="M40.8555 137.884C38.7386 138.514 36.4891 138.552 34.3521 137.993C30.8655 137.049 33.5751 141.893 37.0642 142.28C40.5532 142.666 41.7105 137.658 40.8555 137.884Z" fill="#63332A"/>
<path d="M33.8314 138.181C33.8314 138.181 33.2984 138.027 33.1831 138.428C33.0678 138.83 34.8671 140.205 37.0774 140.5C39.2877 140.795 41.3711 138.605 40.7245 138.256C38.4905 139.048 36.0476 139.021 33.8314 138.181Z" fill="white"/>
<path d="M40.9916 125.264C40.2329 125.346 39.7276 126.425 39.863 127.672C39.9985 128.92 40.7234 129.865 41.4822 129.783C42.241 129.701 42.7463 128.622 42.6108 127.374C42.4753 126.127 41.7504 125.181 40.9916 125.264Z" fill="#63332A"/>
<path d="M32.2814 127.27C31.5226 127.352 31.0174 128.431 31.1528 129.678C31.2881 130.926 32.0132 131.871 32.7719 131.789C33.5305 131.707 34.036 130.628 33.9006 129.38C33.7651 128.133 33.0405 127.187 32.2814 127.27Z" fill="#63332A"/>
<path d="M38.1578 129.151C37.3024 127.638 36.9732 131.091 36.9403 132.193C36.9075 133.295 35.8546 134.183 35.8217 134.906C35.7889 135.63 38.2894 134.972 39.6385 134.709C40.9876 134.446 40.6585 133.032 39.6385 132.144C38.9 131.287 38.3906 130.258 38.1578 129.151Z" fill="#FFB06F"/>
<path d="M31.4244 121.992C30.1574 122.442 27.4012 123.574 26.7634 125.091C26.5932 125.496 27.0385 125.904 27.5266 125.793C28.5638 125.557 30.3616 125.172 32.0051 124.943C32.142 124.934 32.271 124.876 32.3673 124.778C32.4636 124.681 32.5204 124.551 32.5268 124.414C32.5195 123.729 32.4379 123.047 32.2835 122.38C32.2535 122.297 32.2073 122.221 32.1476 122.157C32.0878 122.093 32.0158 122.041 31.9357 122.005C31.8557 121.969 31.7692 121.949 31.6813 121.947C31.5935 121.945 31.5062 121.96 31.4244 121.992Z" fill="#09142C"/>
<path d="M43.2269 121.56C42.0966 121.253 40.9342 121.079 39.7635 121.042C39.6759 121.036 39.5879 121.047 39.5046 121.075C39.4214 121.103 39.3446 121.147 39.2788 121.205C39.213 121.263 39.1595 121.334 39.1215 121.413C39.0835 121.492 39.0618 121.578 39.0576 121.666C39.1075 122.349 39.2315 123.025 39.4273 123.681C39.4738 123.81 39.5665 123.917 39.6873 123.982C39.8082 124.047 39.9487 124.065 40.0819 124.032C41.2344 123.845 42.4718 123.71 43.4798 123.617V122.69C43.3932 122.353 43.2949 122.019 43.2273 121.678C43.2233 121.639 43.2232 121.599 43.2269 121.56Z" fill="#09142C"/>
<path opacity="0.4" d="M41.9579 152.466C41.3275 151.283 40.4836 150.228 39.4686 149.352L39.5632 147.234C37.4477 147.864 35.2461 148.157 33.0394 148.102C30.681 148.289 28.3292 147.665 26.3744 146.333L26.6606 148.35C24.9409 150.158 23.8141 152.447 23.4311 154.912L22.1039 156.747C22.1039 156.747 27.9888 173.914 36.9278 174.858C45.8668 175.802 47.7297 156.753 45.811 154.868C44.7344 153.775 43.414 152.951 41.9579 152.466Z" fill="#9EDCA9"/>
<path d="M263.159 317.452C363.354 317.452 444.577 313.208 444.577 307.972C444.577 302.737 363.354 298.493 263.159 298.493C162.965 298.493 81.7417 302.737 81.7417 307.972C81.7417 313.208 162.965 317.452 263.159 317.452Z" fill="#DFF3E2"/>
<path d="M206.038 179.017L185.991 309.823H191.53L211.584 179.421L206.038 179.017Z" fill="#DFF3E2"/>
<path d="M302.759 186.048L304.279 309.823H299.215L297.216 185.645L302.759 186.048Z" fill="#DFF3E2"/>
<path d="M280.926 184.461L289.426 309.823H285.543L276.403 184.132L280.926 184.461Z" fill="#DFF3E2"/>
<path d="M204.604 178.914L203.599 184.621L211.89 185.698L212.969 179.522L204.604 178.914Z" fill="#469353"/>
<path d="M303.898 186.131L304.279 190.548L295.924 190.758V185.552L303.898 186.131Z" fill="#469353"/>
<path d="M199.874 178.569L306.642 186.33L320.483 11.813H218.555L199.874 178.569Z" fill="#5DC46F"/>
<path d="M316.738 14.4404L304.616 161.361L208.072 153.602L223.621 14.4404H316.738Z" fill="#DFF3E2"/>
<path d="M218.555 81.0571C218.502 85.2518 218.336 89.4358 218.101 93.6135L217.392 92.7932C219.338 92.7967 221.281 92.8481 223.225 92.883C225.17 92.9112 227.113 92.9759 229.056 93.0394C232.942 93.1403 236.824 93.3423 240.708 93.5087L239.432 94.6478L239.891 87.8176C240.033 85.5402 240.242 83.2669 240.419 80.9917L241.49 82.1309C239.579 82.1039 237.668 82.0425 235.756 81.9794C233.845 81.9272 231.934 81.8552 230.023 81.7635C226.2 81.5985 222.378 81.3842 218.555 81.0571ZM218.555 81.0571C222.378 80.73 226.2 80.5158 230.023 80.3513C231.934 80.2603 233.845 80.1882 235.757 80.135C237.668 80.0726 239.58 80.0109 241.491 79.9835L242.615 79.9678L242.562 81.123C242.458 83.4027 242.386 85.6844 242.246 87.962L241.861 94.7968L241.793 96.007L240.585 95.9362C236.705 95.709 232.822 95.5169 228.945 95.2246C227.005 95.0912 225.066 94.9596 223.129 94.7903C221.191 94.6284 219.253 94.4831 217.316 94.2897L216.506 94.2088L216.607 93.4691C217.173 89.324 217.808 85.1852 218.555 81.0571Z" fill="#466F8D"/>
<path d="M212.135 128.326C212.327 130.42 212.399 132.508 212.479 134.596C212.536 136.683 212.563 138.769 212.561 140.854L211.691 139.839C213.484 139.945 215.27 140.119 217.06 140.255C218.847 140.418 220.631 140.61 222.417 140.785L221.07 141.957C221.092 140.818 221.151 139.68 221.189 138.542C221.24 137.404 221.259 136.264 221.336 135.127C221.46 132.851 221.594 130.575 221.784 128.301L222.671 129.213C220.915 129.131 219.159 129.005 217.403 128.868C215.647 128.724 213.891 128.56 212.135 128.326ZM212.135 128.326C213.891 128.093 215.647 127.929 217.403 127.785C219.159 127.648 220.915 127.521 222.671 127.44L223.533 127.399L223.558 128.352C223.62 130.633 223.623 132.912 223.619 135.191C223.63 136.331 223.585 137.47 223.571 138.609C223.546 139.748 223.539 140.887 223.497 142.026L223.447 143.357L222.15 143.198C220.369 142.98 218.586 142.779 216.807 142.547C215.03 142.29 213.249 142.071 211.476 141.782L210.532 141.629L210.606 140.767C210.784 138.69 210.995 136.615 211.24 134.541C211.504 132.468 211.759 130.395 212.135 128.326Z" fill="#466F8D"/>
<path d="M232.11 132.423C232.302 134.516 232.374 136.604 232.453 138.692C232.511 140.779 232.538 142.865 232.536 144.95L231.666 143.935C233.459 144.041 235.245 144.215 237.035 144.352C238.822 144.514 240.606 144.706 242.392 144.882L241.045 146.053C241.067 144.915 241.126 143.776 241.164 142.638C241.215 141.5 241.234 140.361 241.311 139.223C241.435 136.947 241.569 134.672 241.759 132.398L242.646 133.31C240.89 133.228 239.134 133.102 237.378 132.965C235.622 132.821 233.866 132.656 232.11 132.423ZM232.11 132.423C233.866 132.189 235.622 132.025 237.378 131.881C239.134 131.744 240.89 131.618 242.646 131.536L243.508 131.496L243.533 132.448C243.594 134.729 243.598 137.009 243.594 139.288C243.606 140.428 243.56 141.566 243.546 142.706C243.52 143.845 243.514 144.984 243.472 146.122L243.422 147.453L242.125 147.295C240.344 147.077 238.561 146.876 236.782 146.644C235.005 146.387 233.224 146.167 231.451 145.879L230.507 145.726L230.581 144.864C230.759 142.787 230.971 140.712 231.215 138.638C231.479 136.564 231.734 134.491 232.11 132.423Z" fill="#466F8D"/>
<path d="M265.867 132.423C266.059 134.516 266.131 136.604 266.21 138.692C266.268 140.779 266.295 142.865 266.293 144.95L265.423 143.935C267.216 144.041 269.002 144.215 270.792 144.352C272.579 144.514 274.363 144.706 276.149 144.882L274.802 146.053C274.824 144.915 274.883 143.776 274.921 142.638C274.972 141.5 274.991 140.361 275.068 139.223C275.192 136.947 275.325 134.672 275.516 132.398L276.403 133.31C274.647 133.228 272.891 133.102 271.135 132.965C269.379 132.821 267.623 132.656 265.867 132.423ZM265.867 132.423C267.623 132.189 269.379 132.025 271.135 131.881C272.891 131.744 274.647 131.618 276.403 131.536L277.265 131.496L277.29 132.448C277.351 134.729 277.355 137.009 277.35 139.288C277.362 140.428 277.317 141.566 277.303 142.706C277.277 143.845 277.271 144.984 277.229 146.122L277.179 147.453L275.882 147.295C274.101 147.077 272.318 146.876 270.538 146.644C268.762 146.387 266.981 146.167 265.208 145.879L264.264 145.726L264.338 144.864C264.516 142.787 264.727 140.712 264.972 138.638C265.236 136.564 265.491 134.491 265.867 132.423Z" fill="#466F8D"/>
<path d="M292.224 139.256C292.416 141.349 292.488 143.437 292.567 145.525C292.624 147.613 292.652 149.698 292.649 151.783L291.78 150.768C293.573 150.874 295.359 151.048 297.149 151.185C298.936 151.347 300.72 151.539 302.505 151.715L301.158 152.886C301.181 151.748 301.239 150.609 301.278 149.471C301.328 148.333 301.348 147.194 301.424 146.056C301.549 143.78 301.682 141.505 301.873 139.231L302.76 140.143C301.004 140.061 299.248 139.935 297.492 139.798C295.736 139.653 293.98 139.489 292.224 139.256ZM292.224 139.256C293.98 139.022 295.736 138.858 297.492 138.714C299.248 138.577 301.004 138.451 302.76 138.369L303.621 138.329L303.647 139.281C303.708 141.562 303.712 143.842 303.707 146.121C303.72 147.261 303.674 148.399 303.66 149.538C303.634 150.677 303.628 151.817 303.585 152.955L303.536 154.286L302.238 154.127C300.457 153.909 298.674 153.709 296.895 153.477C295.119 153.22 293.338 153 291.565 152.712L290.621 152.559L290.695 151.697C290.873 149.62 291.084 147.545 291.329 145.471C291.593 143.397 291.848 141.324 292.224 139.256Z" fill="#466F8D"/>
<path d="M248.074 83.4192C248.438 87.5079 248.671 91.5966 248.846 95.6853L248.1 94.914C249.876 94.8812 251.649 94.9072 253.423 94.9014C255.198 94.8925 256.971 94.9276 258.744 94.9508C262.292 94.9787 265.836 95.106 269.382 95.1962L268.135 96.253L268.926 90.4366C269.182 88.4971 269.473 86.5624 269.769 84.6275L270.794 85.8665C268.898 85.7165 267.001 85.5708 265.106 85.3844C263.212 85.2077 261.316 85.0401 259.423 84.8291C255.635 84.4399 251.851 83.984 248.074 83.4192ZM248.074 83.4192C251.891 83.3041 255.703 83.298 259.51 83.3596C261.415 83.3733 263.317 83.4304 265.22 83.479C267.123 83.5175 269.023 83.5967 270.924 83.6717L272.079 83.7172L271.95 84.9112C271.74 86.8567 271.524 88.8017 271.274 90.7421L270.546 96.5666L270.408 97.6708L269.298 97.6241C265.755 97.4727 262.21 97.3591 258.669 97.1446C256.898 97.0471 255.127 96.9611 253.357 96.8318C251.587 96.7048 249.816 96.6102 248.047 96.4566L247.271 96.3891L247.301 95.6849C247.476 91.5965 247.709 87.5077 248.074 83.4192Z" fill="#466F8D"/>
<path d="M276.092 85.4436C276.4 89.0989 276.589 92.7542 276.755 96.4093L276.162 95.7503C278.267 95.8858 280.373 96.01 282.474 96.1793C284.576 96.3411 286.68 96.4852 288.779 96.6802L295.077 97.2411L301.368 97.8686L300.04 98.9234C300.269 96.8665 300.561 94.8186 300.818 92.7651C301.085 90.7135 301.341 88.6607 301.643 86.613L302.705 87.875L296.045 87.4096C293.826 87.2248 291.606 87.0759 289.389 86.862C284.952 86.4721 280.519 86.0212 276.092 85.4436ZM276.092 85.4436C280.554 85.3017 285.01 85.2867 289.463 85.3323C291.691 85.3364 293.915 85.4052 296.141 85.4385L302.815 85.627L304 85.6605L303.877 86.8888C303.673 88.9483 303.422 91.0018 303.183 93.0568C302.934 95.1107 302.72 97.1688 302.442 99.2191L302.282 100.405L301.114 100.275L294.831 99.5713L288.554 98.8015C286.462 98.5528 284.374 98.2533 282.285 97.9717C280.194 97.6972 278.109 97.3778 276.022 97.0698L275.404 96.9781L275.429 96.4103C275.595 92.7542 275.784 89.0989 276.092 85.4436Z" fill="#466F8D"/>
<path d="M285.544 102.1C285.163 103.646 284.705 105.172 284.171 106.672C283.712 108.022 283.128 109.574 282.455 111.214C281.787 112.857 281.037 114.592 280.234 116.302C279.432 118.012 278.584 119.701 277.747 121.265C276.918 122.833 276.098 124.274 275.354 125.49C274.542 126.86 273.662 128.189 272.716 129.47C273.095 127.923 273.552 126.397 274.086 124.896C274.544 123.547 275.128 121.994 275.802 120.355C276.469 118.711 277.223 116.979 278.026 115.268C278.828 113.558 279.679 111.871 280.515 110.306C281.345 108.739 282.164 107.298 282.908 106.081C283.719 104.711 284.599 103.382 285.544 102.1Z" fill="#466F8D"/>
<path d="M292.633 104.507C292.633 104.507 293.281 106.516 293.932 109.566C294.27 111.09 294.611 112.874 294.925 114.791C295.07 115.751 295.256 116.739 295.38 117.751C295.513 118.761 295.649 119.787 295.784 120.814C295.892 121.843 295.999 122.873 296.105 123.887C296.224 124.899 296.269 125.903 296.353 126.871C296.496 128.808 296.578 130.623 296.604 132.183C296.68 135.301 296.515 137.406 296.515 137.406C296.515 137.406 295.865 135.398 295.213 132.347C294.875 130.824 294.533 129.04 294.221 127.123C294.076 126.163 293.887 125.175 293.767 124.163C293.634 123.153 293.499 122.126 293.364 121.1C293.257 120.07 293.149 119.04 293.044 118.027C292.93 117.014 292.88 116.01 292.798 115.043C292.657 113.105 292.574 111.291 292.548 109.73C292.471 106.611 292.633 104.507 292.633 104.507Z" fill="#466F8D"/>
<path d="M231.195 99.0713C231.195 99.0713 231.965 100.949 232.803 103.825C233.234 105.26 233.685 106.945 234.117 108.76C234.321 109.669 234.567 110.602 234.754 111.563C234.949 112.522 235.148 113.495 235.346 114.469C235.517 115.448 235.688 116.427 235.857 117.391C236.038 118.353 236.146 119.312 236.289 120.233C236.551 122.08 236.745 123.813 236.868 125.307C237.136 128.29 237.103 130.319 237.103 130.319C237.103 130.319 236.33 128.443 235.492 125.567C235.06 124.131 234.608 122.447 234.178 120.632C233.975 119.722 233.725 118.789 233.543 117.828C233.348 116.869 233.15 115.895 232.952 114.922C232.781 113.942 232.611 112.963 232.442 112C232.266 111.037 232.154 110.078 232.012 109.157C231.751 107.31 231.556 105.577 231.433 104.083C231.163 101.1 231.195 99.0713 231.195 99.0713Z" fill="#466F8D"/>
<path d="M223.652 99.0713C223.693 100.438 223.656 101.806 223.539 103.168C223.454 104.387 223.303 105.799 223.089 107.301C222.881 108.804 222.618 110.399 222.299 111.983C221.98 113.566 221.612 115.141 221.221 116.607C220.839 118.075 220.432 119.436 220.038 120.593C219.619 121.894 219.124 123.171 218.555 124.415C218.512 123.048 218.549 121.679 218.665 120.317C218.75 119.097 218.9 117.686 219.115 116.184C219.322 114.681 219.59 113.086 219.908 111.502C220.227 109.918 220.6 108.345 220.989 106.879C221.373 105.411 221.779 104.05 222.172 102.893C222.591 101.592 223.085 100.316 223.652 99.0713Z" fill="#466F8D"/>
<path d="M144.774 310.801C176.903 310.801 202.948 309.727 202.948 308.402C202.948 307.077 176.903 306.002 144.774 306.002C112.646 306.002 86.6007 307.077 86.6007 308.402C86.6007 309.727 112.646 310.801 144.774 310.801Z" fill="#DFF3E2"/>
<path d="M127.292 300.608C127.521 298.44 121.427 300.426 121.427 300.426L119.056 308.402H144.775C144.775 308.402 127.062 302.776 127.292 300.608Z" fill="#1E3465"/>
<path d="M157.726 300.608C157.955 298.44 151.86 300.426 151.86 300.426L149.489 308.402H175.208C175.208 308.402 157.496 302.776 157.726 300.608Z" fill="#1E3465"/>
<path d="M117.024 196.792C118.734 221.428 120.878 300.262 120.878 300.262C123.463 301.043 126.222 301.043 128.808 300.262C128.808 300.262 129.951 178.869 148.525 164.302L152.634 149.449L117.024 169.382C117.024 169.382 115.314 172.157 117.024 196.792Z" fill="#1E3465"/>
<path d="M134.749 177.726C144.549 200.862 149.597 300.833 149.597 300.833C153.24 302.689 158.813 300.833 158.813 300.833C157.099 231.996 160.528 155.661 160.528 155.661L161.171 148.449L138.31 145.597C138.31 145.597 124.95 154.59 134.749 177.726Z" fill="#1E3465"/>
<path d="M116.341 183.624C116.341 183.624 123.866 168.962 140.532 163.521C157.199 158.08 160.48 156.754 160.48 156.754L160.532 150.305L117.024 169.382C116.276 174.09 116.047 178.866 116.341 183.624Z" fill="#16274C"/>
<path d="M141.382 64.3972L151.311 119.993L158.813 151.912L160.527 155.661L163.742 154.483C164.813 135.417 159.67 100.392 154.74 85.7531C149.81 71.1147 141.382 64.3972 141.382 64.3972Z" fill="#469353"/>
<path d="M139.431 62.6453H136.594C139.876 64.7952 142.635 67.6526 144.667 71.0078C148.593 77.0577 154.628 103.679 154.628 103.679C154.628 103.679 151.633 85.6104 148.524 76.2919C146.875 70.9611 143.717 66.2215 139.431 62.6453Z" fill="#604D3F"/>
<path d="M169.457 136.881C169.457 136.881 192.247 65.5155 192.818 53.0696C192.818 53.0696 169.6 116.994 166.671 135.739L169.457 136.881Z" fill="#469353"/>
<path d="M152.474 94.4865C147.958 69.408 141.011 65.6167 141.011 65.6167L134.38 66.5448L123.984 59.343L126.526 62.6453C126.526 62.6453 136.416 78.5413 143.912 87.0311C148.388 92.0728 151.825 97.9479 154.025 104.32C154.025 104.32 154.597 110.707 154.968 114.851C155.339 118.995 156.347 153.305 156.347 153.305L158.812 151.913C158.812 151.913 158.169 131.883 157.971 123.743C157.773 115.602 152.474 94.4865 152.474 94.4865Z" fill="#E6D9B6"/>
<path d="M137.809 84.004C132.986 78.1131 134.749 76.1849 134.749 76.1849L130.713 72.8649C130.713 72.8649 121.878 59.5474 117.948 63.0469L113.055 70.2947L114.48 86.613C114.48 86.613 120.199 139.81 115.501 170.015C115.501 170.015 142.845 158.554 155.812 155.341L156.348 153.306C156.348 153.306 156.991 124.064 154.955 113.996C152.918 103.928 142.631 89.8951 137.809 84.004Z" fill="#469353"/>
<path d="M123.084 53.3458L124.021 57.3335C124.021 57.3335 127.164 63.1889 138.666 65.6169C138.666 65.6169 137.666 58.6905 138.666 55.3341C139.666 51.9777 123.084 53.3458 123.084 53.3458Z" fill="#F6B07F"/>
<path d="M123.809 56.4319C122.419 57.601 123.557 58.6186 123.557 58.6186C125.343 62.3676 137.202 71.0079 137.202 71.0079C136.487 68.3659 138.309 64.9379 138.309 64.9379C127.807 60.6896 123.809 56.4319 123.809 56.4319Z" fill="#F2EBD1"/>
<path d="M138.631 65.3571C138.631 65.3571 140.023 65.3667 141.881 68.9728C141.503 66.1112 140.24 63.4389 138.27 61.3289L138.631 65.3571Z" fill="#F2EBD1"/>
<path d="M137.844 64.4025C136.273 64.5454 137.038 69.759 137.038 69.759C137.038 69.759 138.952 72.8285 140.666 71.579C142.381 70.3294 140.81 67.1868 140.81 67.1868C140.81 67.1868 139.416 64.2597 137.844 64.4025Z" fill="#33584E"/>
<path d="M141.177 71.0078L138.309 71.2211L152.651 100.499C152.651 100.499 148.793 85.2893 147.293 80.9514C145.793 76.6136 141.177 71.0078 141.177 71.0078Z" fill="#33584E"/>
<path d="M165.475 104.435L164.385 107.087L168.491 112.5L170.011 111.906C169.368 109.443 166.957 103.819 166.957 103.819L165.475 104.435Z" fill="#E6D9B6"/>
<path d="M183.888 96.9109C182.495 96.4819 179.226 98.1426 174.94 99.6956C172.13 100.762 169.452 102.145 166.956 103.819L169.582 110.515C170.539 109.955 171.566 109.522 172.636 109.229C174.618 108.639 178.101 109.603 179.762 108.16C181.423 106.716 181.959 102.962 183.299 100.331C184.638 97.6989 185.281 97.339 183.888 96.9109Z" fill="#FFCD9C"/>
<path d="M144.453 29.5916L123.342 37.7322C123.342 37.7322 125.968 51.014 128.165 52.9955C130.362 54.977 142.471 58.2439 145.632 58.1903C148.794 58.1367 147.615 56.209 147.561 54.2271C147.557 52.7573 147.664 51.2892 147.882 49.8356L150.133 48.9787C149.276 47.9074 147.561 44.1581 147.347 38.2676C147.132 32.377 144.453 29.5916 144.453 29.5916Z" fill="#FFCD9C"/>
<path d="M135.773 19.8087C127.093 19.7372 122.771 21.808 119.806 27.1635C119.806 27.1635 116.162 28.306 116.52 34.4115C116.877 40.5171 119.591 54.2984 125.557 54.1556C131.522 54.0127 128.701 49.6927 128.093 47.4789C127.485 45.265 125.521 41.2308 127.95 41.338C128.443 41.313 128.934 41.4187 129.373 41.6444C129.812 41.8701 130.183 42.2078 130.45 42.6231C131.093 43.98 132.272 43.8365 132.379 41.9802C132.486 40.1239 134.022 35.2683 137.63 34.59C141.237 33.9117 144.988 31.7336 145.488 29.3413C145.988 26.949 144.453 19.88 135.773 19.8087Z" fill="#09142C"/>
<path d="M131.422 84.2058C124.792 74.2699 114.405 85.7534 114.405 85.7534L115.711 100.499C115.711 100.499 127.064 118.691 140.075 120.32C153.087 121.949 155.241 120.101 155.241 120.101C155.735 114.447 154.52 108.776 151.754 103.82C147.161 95.8884 138.052 94.1418 131.422 84.2058Z" fill="#2F6238"/>
<path d="M139.595 81.3261C134.951 74.7568 123.126 57.7642 123.126 57.7642C120.159 59.0513 117.948 63.0462 117.948 63.0462C125.664 66.8306 129.593 76.0422 129.593 76.0422L132.879 75.9708C131.737 76.899 131.308 80.398 131.308 80.398C131.308 80.398 137.166 87.0388 144.31 94.6076C151.454 102.176 155.241 117.887 155.241 117.887L154.026 104.319C150.811 94.5368 144.238 87.8958 139.595 81.3261Z" fill="#2F6238"/>
<path d="M165.028 103.927C165.028 103.927 148.954 108.425 143.06 106.325C137.166 104.224 131.462 79.4566 125.271 72.7578C119.08 66.059 113.055 70.2942 113.055 70.2942C102.981 75.6496 128.807 110.461 136.594 116.673C144.381 122.886 168.671 113.246 168.671 113.246C166.743 105.105 165.028 103.927 165.028 103.927Z" fill="#BEE7C5"/>
<path d="M138.114 189.272L142.601 217.052C140.439 197.656 147.087 170.014 147.087 170.014C142.421 176.175 138.114 189.272 138.114 189.272Z" fill="#5B2F2F"/>
<path d="M145.409 40.3103C144.766 40.3103 144.244 41.0537 144.244 41.9705C144.244 42.8873 144.766 43.6307 145.409 43.6307C146.053 43.6307 146.575 42.8876 146.575 41.9705C146.575 41.0535 146.053 40.3103 145.409 40.3103Z" fill="#63332A"/>
<path d="M145.549 36.2471C144.288 36.9033 141.575 38.4544 141.194 39.8376C141.093 40.2062 141.647 40.4373 142.144 40.2355C143.203 39.8064 145.042 39.0837 146.747 38.5216C147.065 38.417 147.258 38.1861 147.199 37.9714C147.055 37.409 146.833 36.8692 146.54 36.3674C146.413 36.239 146.246 36.1573 146.066 36.1355C145.886 36.1137 145.704 36.153 145.549 36.2471Z" fill="#09142C"/>
<path d="M143.087 50.421C143.643 52.2719 147.557 53.9376 147.556 53.8266C147.555 53.7155 147.767 50.7232 147.767 50.7232C146.321 50.6196 144.885 50.3946 143.476 50.0507C143.004 50.0228 143.087 50.421 143.087 50.421Z" fill="#63332A"/>
<path d="M144.028 50.1509C144.028 50.1509 143.756 52.0304 147.652 52.3801L147.768 50.7232C146.499 50.7326 145.236 50.5394 144.028 50.1509Z" fill="#FFF4F3"/>
<path opacity="0.4" d="M139.431 62.6454C139.108 62.1541 138.717 61.7109 138.27 61.329L138.366 56.8557C138.366 56.8557 130.668 54.9542 128.6 53.3215C127.759 53.7932 126.811 54.0429 125.846 54.0471C124.881 54.0514 123.931 53.81 123.085 53.3458L123.809 56.432C123.809 56.432 123.053 56.5655 123.127 57.7642C121.663 58.388 120.415 59.427 119.537 60.7528C119.537 60.7528 133.773 82.1195 142.687 80.159C151.6 78.1984 147.21 70.9203 147.21 70.9203C147.21 70.9203 142.664 64.9028 139.431 62.6454Z" fill="#9EDCA9"/>
<path d="M510.272 5.52177L502.509 62.2305C502.356 63.3535 501.814 64.3876 500.979 65.154C500.143 65.9204 499.066 66.371 497.933 66.4278L428.51 69.9095C427.852 69.9426 427.194 69.8415 426.575 69.6124C425.957 69.3832 425.392 69.0309 424.914 68.5767C424.436 68.1225 424.056 67.5759 423.796 66.9703C423.536 66.3646 423.402 65.7124 423.402 65.0533V4.8624C423.402 4.22385 423.528 3.59156 423.772 3.00161C424.017 2.41167 424.375 1.87564 424.827 1.42412C425.278 0.972603 425.815 0.614444 426.405 0.370092C426.995 0.125741 427.628 -1.65708e-05 428.267 1.63772e-09L505.452 1.63772e-09C506.146 6.85193e-06 506.833 0.148672 507.465 0.435998C508.097 0.723324 508.661 1.14265 509.117 1.66577C509.574 2.18889 509.913 2.80369 510.112 3.4688C510.312 4.13392 510.366 4.83393 510.272 5.52177Z" fill="#5DC46F"/>
<path d="M424.651 40.2836L396.428 60.3269C396.391 60.3551 396.366 60.396 396.357 60.4417C396.348 60.4874 396.357 60.5347 396.381 60.5746C396.405 60.6145 396.443 60.6442 396.487 60.658C396.531 60.6718 396.579 60.6687 396.622 60.6494L426.773 45.6099C426.815 45.5889 426.848 45.5531 426.865 45.5093C426.882 45.4656 426.882 45.4171 426.865 45.3733L424.937 40.3696C424.926 40.3428 424.91 40.3188 424.889 40.2993C424.868 40.2798 424.843 40.2653 424.815 40.2571C424.788 40.2488 424.759 40.2469 424.73 40.2515C424.702 40.2561 424.675 40.2671 424.651 40.2836Z" fill="#5DC46F"/>
<path d="M466.874 57.0259H461.137C461.137 59.3172 462.887 59.4723 462.887 59.4723H470.862C470.862 59.4723 472.611 59.3172 472.611 57.0259H466.874Z" fill="#FEE042"/>
<path d="M466.874 59.4724H462.887C463.316 60.1844 463.943 60.7565 464.691 61.1192H469.057C469.805 60.7565 470.432 60.1844 470.862 59.4724H466.874Z" fill="#FEE042"/>
<path d="M466.874 61.1191H464.691C465.374 61.4414 466.119 61.6085 466.874 61.6085C467.629 61.6085 468.374 61.4414 469.057 61.1191H466.874Z" fill="#FEE042"/>
<path d="M473.067 48.7549H460.681C460.681 49.3354 460.451 57.0263 460.451 57.0263H473.297C473.297 57.0263 473.067 49.3355 473.067 48.7549Z" fill="#FEE042"/>
<path d="M482.693 27.9733C482.964 26.8284 483.098 25.6554 483.093 24.4789H483.073C483.073 20.1807 481.365 16.0585 478.324 13.0192C475.284 9.97992 471.16 8.27246 466.86 8.27246C462.559 8.27246 458.435 9.97992 455.394 13.0192C452.354 16.0585 450.646 20.1807 450.646 24.4789H450.626C450.621 25.6554 450.755 26.8284 451.026 27.9733C451.623 30.6669 452.902 33.1622 454.74 35.2202C456.416 37.6347 457.967 39.9358 457.967 43.2038C457.967 45.914 458.743 48.6242 460.542 48.6242L466.859 48.7547L473.176 48.6242C474.976 48.6242 475.752 45.914 475.752 43.2038C475.752 39.9353 477.303 37.6347 478.978 35.2202C480.817 33.1623 482.096 30.667 482.693 27.9733Z" fill="#FEE042"/>
<path d="M460.604 54.3269H473.115C473.4 54.3269 473.633 54.7071 473.633 55.1724C473.633 55.6368 473.4 56.0171 473.115 56.0171H460.604C460.319 56.0171 460.086 55.6368 460.086 55.1724C460.085 54.7076 460.319 54.3269 460.604 54.3269Z" fill="#FEE042"/>
<path d="M460.604 51.7314H473.115C473.4 51.7314 473.633 52.1115 473.633 52.5757C473.633 53.0406 473.4 53.4212 473.115 53.4212H460.604C460.319 53.4212 460.086 53.041 460.086 52.5757C460.085 52.1115 460.319 51.7314 460.604 51.7314Z" fill="#FEE042"/>
<path d="M460.604 49.1355H473.115C473.4 49.1355 473.633 49.5157 473.633 49.98C473.633 50.4449 473.4 50.8249 473.115 50.8249H460.604C460.319 50.8249 460.086 50.4449 460.086 49.98C460.085 49.5157 460.319 49.1355 460.604 49.1355Z" fill="#FEE042"/>
<path d="M463.171 10.7772C463.171 10.7772 454.058 13.7797 452.512 23.3555C450.966 32.9313 457.232 21.3267 460.811 19.0544C464.391 16.7821 469.273 8.66643 463.171 10.7772Z" fill="white"/>
<path d="M364.639 301.603C335.105 301.603 311.164 305.151 311.164 309.528C311.164 313.904 335.105 317.452 364.639 317.452C394.172 317.452 418.113 313.904 418.113 309.528C418.113 305.151 394.172 301.603 364.639 301.603Z" fill="#BEE7C5"/>
<path d="M353 303.425C354.367 304.307 356.573 303.425 356.573 303.425L356.987 300.449L352.999 298.222L353 303.425Z" fill="#FFCD9C"/>
<path d="M352.999 303.425C352.999 303.425 349.867 307.218 349.25 308.364C348.632 309.511 351.191 313.92 352.999 313.832C354.808 313.744 358.691 310.834 359.044 309.114C359.397 307.394 356.573 303.425 356.573 303.425H352.999Z" fill="#392A25"/>
<path d="M381.764 304.231C383.132 305.604 385.337 304.231 385.337 304.231L385.751 299.597L381.763 296.129L381.764 304.231Z" fill="#FFCD9C"/>
<path d="M381.764 304.449C381.764 304.449 378.632 308.242 378.014 309.388C377.397 310.535 379.955 314.945 381.764 314.856C383.573 314.768 387.455 311.858 387.808 310.138C388.161 308.418 385.338 304.449 385.338 304.449H381.764Z" fill="#392A25"/>
<path d="M342.323 168.908C341.618 181.279 351.677 300.118 351.677 300.118C353.926 300.759 356.31 300.759 358.559 300.118L361.618 186.464C364.559 186.581 371.984 185.993 371.984 185.993C371.984 185.993 373.736 229.209 375.147 239.263C376.559 249.317 380.265 299.589 380.265 299.589C382.146 300.275 384.208 300.275 386.089 299.589C386.089 299.589 386.794 269.602 389.795 245.966C392.795 222.33 392.971 168.619 392.971 168.619C392.971 168.619 343.029 156.536 342.323 168.908Z" fill="#604D3F"/>
<path d="M342.95 186.051C342.95 186.051 349.102 177.06 364.523 175.223C373.99 174.136 383.569 174.551 392.907 176.451L392.971 168.619L342.323 168.908L342.95 186.051Z" fill="#49392E"/>
<path d="M339.588 104.383C339.588 104.383 337.647 103.266 332.794 113.585C327.94 123.904 316.911 144.805 319.117 151.773C321.323 158.741 344.705 126.814 344.705 126.814C344.705 126.814 342.323 104.53 339.588 104.383Z" fill="#BEE7C5"/>
<path d="M319.489 148.715L337.322 137.477L344.31 123.487L341.063 115.357C341.063 115.357 337.469 128.742 319.489 148.715Z" fill="#DFF3E2"/>
<path d="M358.676 84.2747V89.5076C358.676 89.5076 358.558 97.6803 366.5 98.7974C374.441 99.9145 376.5 89.5076 376.5 89.5076L374.088 81.0996L358.676 84.2747Z" fill="#F6B07F"/>
<path d="M366.945 97.8513L364.515 99.9145V105.323L370.97 103.854L370.147 97.1509L366.945 97.8513Z" fill="#33584E"/>
<path d="M392.912 98.8813C392.912 98.8813 390.058 116.672 391.824 118.7C393.589 120.728 422.041 137.478 422.041 137.478L416.971 118.172L392.912 98.8813Z" fill="#BEE7C5"/>
<path d="M406.645 89.9906C406.645 89.9906 408.059 99.5621 411.059 102.472C412.749 104.085 414.312 105.825 415.736 107.676C415.736 107.676 419.781 107.413 419.699 104.281C419.699 104.281 417.236 96.5632 412.647 92.0657C408.059 87.5681 406.645 89.9906 406.645 89.9906Z" fill="#F6B07F"/>
<path d="M408.941 103.531L411.508 102.913C411.508 102.913 404.441 80.6881 401.177 77.5129C401.177 77.5129 405.589 96.0341 408.941 103.531Z" fill="#469353"/>
<path d="M368.97 56.5227C363.626 56.6541 358.307 57.3039 353.088 58.4629V70.7221C353.088 70.7221 351.764 68.3408 350.176 70.0166C348.588 71.6923 350.441 74.4263 351.147 75.4847C351.852 76.5431 357.323 87.2146 361.382 89.8604C362.919 90.9894 364.776 91.5983 366.683 91.5983C368.59 91.5983 370.447 90.9894 371.984 89.8604C374.529 87.9202 377.441 77.2487 376.735 75.7493C376.735 75.7493 380.088 74.7792 379.382 71.7804C378.676 68.7816 376.47 56.5227 368.97 56.5227Z" fill="#FFCD9C"/>
<path d="M354.897 55.0233C354.897 55.0233 350.954 54.6699 349.55 59.7857C348.147 64.9015 349.591 71.2161 349.591 71.2161C349.591 71.2161 350.853 67.4295 353.088 70.722C353.088 70.722 354.235 74.338 355.206 73.2796C356.176 72.2212 353.617 60.2269 356.706 58.3746C359.794 56.5223 354.897 55.0233 354.897 55.0233Z" fill="#080D19"/>
<path d="M376.323 50.9369C369.264 47.4679 358.058 46.2331 354.897 55.0233C354.737 55.3941 354.666 55.7969 354.689 56.1999C354.712 56.6029 354.828 56.995 355.029 57.3453C355.434 58.1793 356.071 58.8784 356.864 59.3583C357.658 59.8382 358.573 60.0784 359.5 60.0499C362.911 60.1088 369.938 60.0499 371.984 62.4602C374.029 64.8705 376.206 70.6918 379.382 71.7794C382.559 72.8671 383.382 54.406 376.323 50.9369Z" fill="#09142C"/>
<path d="M358.676 89.0959L355.441 93.0812C356.234 95.581 357.552 97.8826 359.307 99.8318C361.062 101.781 363.214 103.333 365.618 104.383L367.147 96.857C359.441 94.5054 358.676 89.0959 358.676 89.0959Z" fill="#F2EBD1"/>
<path d="M375.908 87.4456C375.908 87.4456 373.351 94.7454 368.441 96.3281L370.206 102.913C370.206 102.913 379.147 98.7387 377.853 91.0364L375.908 87.4456Z" fill="#F2EBD1"/>
<path opacity="0.4" d="M392.912 137.486C394.265 127.255 392.912 98.8815 392.912 98.8815C391.03 96.202 377.853 91.0364 377.853 91.0364C375.147 100.856 367.588 103.266 367.588 103.266C357.088 100.562 355.735 92.9181 355.735 92.9181C349.943 96.1277 344.527 99.9733 339.587 104.383C341.529 109.822 341.705 133.782 341.705 133.782C341.705 133.782 342.059 158.212 340.735 163.592C339.411 168.972 343.382 169.325 346.117 170.471C348.853 171.618 368.176 169.236 374.529 168.619C380.882 168.001 389.088 170.295 392.97 168.619C396.853 166.943 391.559 147.717 392.912 137.486Z" fill="#469353"/>
<path d="M344.705 121.611C341.441 122.493 336.359 134.984 336.359 134.984C334.322 139.518 340.647 141.543 340.647 141.543C340.647 141.543 345.147 133.694 346.815 131.489C348.483 129.284 355.47 126.373 356.617 126.109C357.764 125.844 357.323 122.669 355.912 121.611C354.5 120.552 347.97 120.729 344.705 121.611Z" fill="#FFCD9C"/>
<path d="M348.235 116.319C346.47 115.966 343.382 123.903 343.382 123.903L347.706 121.963C347.706 121.963 350 116.672 348.235 116.319Z" fill="#FFCD9C"/>
<path d="M407.177 85.6269C403.647 84.5685 397.294 86.6559 397.206 87.8613C397.118 89.0667 401.706 92.3296 403.824 92.8586C405.942 93.3876 412.706 92.7803 414.927 94.7599C414.927 94.7601 410.706 86.6854 407.177 85.6269Z" fill="#FFCD9C"/>
<path d="M357.727 151.131C345.833 162.156 374.784 144.427 379.48 119.076C379.49 119.021 369.621 140.106 357.727 151.131Z" fill="#DFF3E2"/>
<path d="M374.839 110.706C374.847 110.657 367.003 129.062 357.55 138.686C348.097 148.31 371.107 132.835 374.839 110.706Z" fill="#DFF3E2"/>
<path d="M402.761 106.777C402.761 106.777 417.428 121.323 420.798 129.183L415.96 117.361L402.761 106.777Z" fill="#DFF3E2"/>
<path d="M413.177 106.088C413.177 106.088 417.941 124.345 417.941 127.873C417.941 131.4 421.912 142.778 427.824 136.78C433.736 130.783 421.471 102.472 421.471 102.472C419.971 105.647 413.177 106.088 413.177 106.088Z" fill="#BEE7C5"/>
<path d="M336.235 134.046C336.235 134.046 324.234 142.689 321.94 145.247C319.646 147.805 313.734 156.448 323.528 157.682C333.322 158.917 342.323 140.308 342.323 140.308C335.97 137.927 336.235 134.046 336.235 134.046Z" fill="#BEE7C5"/>
<path d="M369.948 82.641C367.536 83.0759 365.055 82.9428 362.704 82.2523C359.203 81.0868 362.952 86.8868 366.034 87.0535C369.115 87.2202 372.475 82.2523 369.948 82.641Z" fill="#63332A"/>
<path d="M370.004 82.988C367.511 83.519 364.927 83.4476 362.467 82.7797C362.133 82.6063 362.154 82.3774 361.841 82.5778C361.529 82.7782 361.939 83.126 361.939 83.126C363.51 84.2888 365.399 84.9468 367.353 85.013C369.949 84.8049 370.587 83.4937 370.574 83.1327C370.56 82.7716 370.004 82.988 370.004 82.988Z" fill="white"/>
<path d="M361.1 70.9402C360.109 70.9402 359.307 72.0744 359.307 73.4738C359.307 74.8732 360.11 76.0075 361.1 76.0075C362.09 76.0075 362.893 74.873 362.893 73.4738C362.893 72.0745 362.091 70.9402 361.1 70.9402Z" fill="#63332A"/>
<path d="M370.564 70.9402C369.574 70.9402 368.771 72.0744 368.771 73.4738C368.771 74.8732 369.574 76.0075 370.564 76.0075C371.554 76.0075 372.358 74.873 372.358 73.4738C372.358 72.0745 371.555 70.9402 370.564 70.9402Z" fill="#63332A"/>
<path d="M367.129 75.3788C366.325 73.9564 366.016 77.2033 365.985 78.2392C365.954 79.2752 364.964 80.11 364.933 80.7904C364.902 81.4708 367.253 80.8522 368.522 80.6049C369.79 80.3575 369.481 79.0275 368.522 78.1929C367.827 77.3874 367.348 76.4193 367.129 75.3788Z" fill="#FFB06F"/>
<path d="M361.424 66.9814C360.115 67.5273 357.284 68.8479 356.774 70.2498C356.638 70.6234 357.164 70.9254 357.676 70.7694C358.763 70.4381 360.65 69.886 362.39 69.4866C362.714 69.4122 362.926 69.1927 362.889 68.9621C362.801 68.3608 362.634 67.7738 362.392 67.2161C362.284 67.07 362.128 66.9664 361.951 66.9235C361.774 66.8806 361.588 66.9011 361.424 66.9814Z" fill="#09142C"/>
<path d="M370.409 66.9813C370.246 66.901 370.06 66.8804 369.883 66.9232C369.706 66.966 369.55 67.0694 369.442 67.2155C369.2 67.7732 369.033 68.3603 368.944 68.9616C368.906 69.1921 369.12 69.4116 369.444 69.486C371.183 69.8851 373.071 70.4375 374.158 70.7688C374.67 70.9248 375.195 70.6228 375.06 70.2493C374.55 68.8479 371.719 67.5267 370.409 66.9813Z" fill="#09142C"/>
<path opacity="0.4" d="M375.908 87.4454L375.015 84.3298C375.015 84.3298 373.55 90.6786 368.441 91.4367C363.332 92.1949 360.353 89.0374 358.676 87.0578V89.0959L355.441 93.0812L350.865 95.8282C350.865 95.8282 354.959 110.91 367.588 110.297C380.218 109.685 382.122 92.8124 382.122 92.8124L377.853 91.0368L375.908 87.4454Z" fill="#9EDCA9"/>
<path d="M389.947 162.399H387.465V177.994H389.947V162.399Z" fill="#725A4C"/>
<path d="M404.307 168.07L398.457 165.609H399.854L404.307 168.07Z" fill="#30261A"/>
<path d="M399.521 163.47C401.116 167.11 397.393 167.174 397.393 167.174L373.281 158.271L377.536 151.285L399.521 163.47Z" fill="#807F7F"/>
<path d="M374.256 147.602C375.466 147.602 376.649 147.961 377.655 148.633C378.661 149.304 379.445 150.259 379.908 151.376C380.371 152.493 380.492 153.723 380.256 154.909C380.02 156.095 379.437 157.184 378.582 158.039C377.726 158.894 376.637 159.477 375.45 159.713C374.263 159.948 373.034 159.827 371.916 159.365C370.798 158.902 369.843 158.118 369.171 157.113C368.499 156.107 368.14 154.925 368.14 153.716C368.14 152.913 368.298 152.118 368.605 151.377C368.913 150.635 369.363 149.961 369.931 149.393C370.499 148.825 371.174 148.375 371.916 148.068C372.658 147.76 373.453 147.602 374.256 147.602Z" fill="#30261A"/>
<path d="M334.736 299.226C338.204 304.159 340.636 303.485 340.636 303.485C341.734 303.357 342.844 303.585 343.803 304.135C345.278 305.045 347.75 306.563 347.75 306.563H330.139C329.879 304.525 331.42 298.932 331.42 298.932C331.42 298.932 331.267 294.294 334.736 299.226Z" fill="#CE2C3A"/>
<path d="M359.025 299.226C362.494 304.159 364.926 303.485 364.926 303.485C366.024 303.357 367.134 303.585 368.092 304.135C369.567 305.045 372.039 306.563 372.039 306.563H354.429C354.169 304.525 355.71 298.932 355.71 298.932C355.71 298.932 355.557 294.294 359.025 299.226Z" fill="#CE2C3A"/>
<path d="M333.988 311.811H316.911V185.193L339.68 175.332C339.68 175.332 350.432 289.052 333.988 311.811Z" fill="#469353"/>
<path d="M339.68 175.332H417.953C417.953 175.332 415.974 268.823 407.553 311.811H333.988C333.988 311.811 343.475 212.07 339.68 175.332Z" fill="#5DC46F"/>
<path d="M417.953 175.332H339.679V160.468H418.347L417.953 175.332Z" fill="#E8D6D6"/>
<path d="M339.68 175.332L316.911 185.193V175.332V171.467L339.68 160.468V175.332Z" fill="#D3C5C5"/>
<path opacity="0.3" d="M374.284 305.143L387.555 304.569L400.338 304.077C400.281 304.159 400.219 304.238 400.154 304.313L400.827 304.059L400.338 304.077C400.868 303.303 401.275 302.452 401.545 301.554C401.919 300.436 402.232 299.272 402.512 298.094C403.07 295.735 403.489 293.32 403.902 290.905C404.704 286.067 405.325 281.181 405.88 276.287C406.431 271.393 406.959 266.491 407.418 261.58L408.739 246.84L411.099 217.317L413.386 187.768C413.367 192.71 413.244 197.65 413.119 202.59C413.006 207.531 412.845 212.47 412.636 217.407C412.451 222.346 412.192 227.28 411.933 232.216C411.683 237.152 411.351 242.084 411.016 247.016C410.684 251.948 410.295 256.878 409.85 261.804C409.403 266.73 408.945 271.657 408.357 276.574C407.768 281.492 407.119 286.405 406.279 291.308C405.86 293.76 405.369 296.204 404.756 298.644C404.445 299.863 404.098 301.081 403.668 302.299C403.447 302.923 403.19 303.534 402.901 304.129C402.574 304.828 402.119 305.459 401.559 305.99L401.281 306.239L400.885 306.245L387.604 306.44L374.321 306.571C369.894 306.619 365.465 306.605 361.036 306.609C356.608 306.615 352.179 306.617 347.749 306.563C352.17 306.273 356.593 306.04 361.015 305.811C365.438 305.579 369.86 305.33 374.284 305.143Z" fill="white"/>
<path opacity="0.3" d="M400.154 304.313C400.219 304.238 400.281 304.159 400.338 304.078L400.827 304.059L400.154 304.313Z" fill="white"/>
<path opacity="0.3" d="M330.962 295.942C331.121 293.752 331.225 291.274 331.384 288.577C331.649 283.177 331.957 276.878 332.288 270.129C332.586 263.378 332.904 256.176 333.221 248.974C333.555 241.771 333.889 234.567 334.202 227.814C334.552 221.06 334.879 214.757 335.159 209.353C335.493 203.95 335.771 199.447 335.966 196.295C336.188 193.143 336.316 191.342 336.316 191.342C336.316 191.342 336.392 193.147 336.451 196.306C336.486 199.465 336.604 203.979 336.592 209.393C336.606 214.808 336.543 221.124 336.403 227.89C336.315 231.272 336.223 234.767 336.13 238.319C335.997 241.87 335.861 245.477 335.725 249.084C335.374 256.295 335.006 263.506 334.492 270.259C334.258 273.637 333.995 276.899 333.699 279.99C333.431 283.083 333.143 286.004 332.819 288.696C332.528 291.391 332.228 293.857 331.891 296.036C331.562 298.216 331.338 300.12 331.044 301.677C330.49 304.794 330.139 306.563 330.139 306.563C330.139 306.563 330.27 304.756 330.559 301.617C330.73 300.051 330.805 298.131 330.962 295.942Z" fill="white"/>
<path d="M333.987 311.81L333.367 314.857C333.367 314.857 402.791 317.681 407.553 311.81C412.316 305.94 333.987 311.81 333.987 311.81Z" fill="#469353"/>
<path d="M316.911 311.811H333.988L333.367 314.857H316.911V311.811Z" fill="#2F6238"/>
<path d="M108.816 344.773C132.002 344.773 150.798 343.998 150.798 343.042C150.798 342.085 132.002 341.31 108.816 341.31C85.6297 341.31 66.8337 342.085 66.8337 343.042C66.8337 343.998 85.6297 344.773 108.816 344.773Z" fill="#DFF3E2"/>
<path d="M98.2548 335.256C98.2548 335.256 98.3045 333.974 96.4627 334.544C96.4627 334.544 93.1278 338.295 92.8789 339.718L104.328 343.041H109.704C109.704 343.041 103.879 341.997 102.038 339.908C100.196 337.819 98.2548 335.256 98.2548 335.256Z" fill="#1E3465"/>
<path d="M114.543 337.371C114.233 336.61 112.441 337.371 112.441 337.371C112.441 337.371 110.151 342.558 110.351 343.042H130.759C130.759 343.042 114.853 338.132 114.543 337.371Z" fill="#1E3465"/>
<path d="M99.3002 310.618C99.158 318.024 96.4628 334.544 96.4628 334.544L98.2548 335.257C98.2548 335.257 105.721 317.027 108.559 306.203C110.13 300.057 112.13 294.028 114.543 288.161H103.78C103.78 288.161 99.4421 303.212 99.3002 310.618Z" fill="#FFCD9C"/>
<path d="M108.559 300.055C108.26 304.383 112.441 337.519 112.441 337.519H114.543C114.543 337.519 116.772 310.801 117.668 302.741C118.565 294.68 119.017 286.177 119.017 286.177L111.396 279.307C111.396 279.307 108.857 295.726 108.559 300.055Z" fill="#FFCD9C"/>
<path d="M100.345 219.528C91.8336 225.971 93.1277 245.524 95.517 255.786C97.9064 266.047 101.789 289.208 101.789 289.208C101.789 289.208 118.713 289.606 119.669 285.029C120.625 280.451 119.669 222.354 119.669 222.354C119.669 222.354 108.857 213.085 100.345 219.528Z" fill="#1E3465"/>
<path d="M100.342 219.528C94.8934 223.653 93.4661 233.149 93.7691 242.142C95.9371 236.513 100.084 231.868 105.433 229.076C108.191 227.685 111.05 226.507 113.986 225.55C115.099 225.158 116.222 224.797 117.338 224.412C117.854 224.234 120.59 222.973 118.283 224.071C118.744 223.852 119.212 223.657 119.684 223.478C119.673 222.754 119.666 222.354 119.666 222.354C119.666 222.354 108.854 213.085 100.342 219.528Z" fill="#16274C"/>
<path d="M128.279 183.64C128.279 183.64 122.795 195.274 125.682 195.688C128.569 196.103 149.674 206.12 149.674 206.12C151.765 200.05 164.607 185.422 164.607 185.422C155.902 178.349 145.344 173.927 134.194 172.685L128.279 183.64Z" fill="#F9EED2"/>
<path d="M98.6281 198.333C99.3747 202.438 104.751 207.737 104.751 207.737L111.844 188.333L105.457 183.64C105.457 183.64 97.8815 194.229 98.6281 198.333Z" fill="#BEE7C5"/>
<path d="M118.065 162.511L109.828 164.973L106.318 189.975L100.345 219.528C100.345 219.528 101.69 221.767 107.065 222.961C112.441 224.154 120.281 222.214 120.281 222.214C120.281 222.214 128.046 195.87 129.166 191.989C130.287 188.108 126.895 179.451 126.895 179.451C127.462 174.825 118.065 162.511 118.065 162.511Z" fill="#469353"/>
<path d="M134.094 198.109L112.889 211.394C112.889 211.394 116.473 198.781 116.697 196.094C116.921 193.408 120.58 179.004 117.444 175.496C116.716 174.519 115.654 173.843 114.461 173.597C113.267 173.35 112.025 173.55 110.969 174.158C107.912 178.109 106.153 182.908 105.933 187.898C105.398 196.569 101.988 218.11 107.588 221.096C113.188 224.081 138.126 203.408 138.126 203.408C137.828 201.617 134.094 198.109 134.094 198.109Z" fill="#BEE7C5"/>
<path d="M134.472 198.476L135.836 200.895L143.601 185.422L141.711 184.526C139.224 187.86 134.472 198.476 134.472 198.476Z" fill="#FFCD9C"/>
<path d="M144.995 183.034C143.538 184.33 142.354 185.903 141.511 187.661C140.814 189.203 134.94 201.144 134.94 201.144L137.433 201.921C137.433 201.921 143.402 196.219 145.244 193.88C147.086 191.542 146.09 182.238 144.995 183.034Z" fill="#FFCD9C"/>
<path d="M135.886 178.307L143.851 186.617L144.796 184.527L137.827 176.616L135.886 178.307Z" fill="#469353"/>
<path d="M115.204 158.109C115.204 158.109 124.612 169.377 124.761 168.108C124.911 166.84 127.822 158.109 127.822 158.109L122.447 149.973L115.204 158.109Z" fill="#F6B07F"/>
<path d="M119.099 159.856C119.099 159.856 116.374 161.192 117.319 163.083C118.264 164.973 126.895 179.452 126.895 179.452C127.71 177.163 127.821 169.053 127.821 169.053C125.929 167.461 119.099 159.856 119.099 159.856Z" fill="#F2EBD1"/>
<path d="M142.158 140.196C142.345 136.841 141.731 133.49 140.366 130.419L125.209 133.703C125.209 133.703 119.609 144.45 119.385 148.481C119.161 152.511 127.374 159.153 131.63 159.377C135.886 159.601 139.395 151.615 139.395 151.615C140.332 151.585 141.263 151.46 142.175 151.242C141.446 149.525 141.934 146.092 142.158 140.196Z" fill="#FFCD9C"/>
<path d="M132.75 121.837C122.596 118.255 116.324 121.837 109.455 146.614C102.585 171.392 106.095 188.855 106.095 188.855C106.319 181.989 114.543 167.063 114.543 167.063C113.509 169.377 111.246 183.258 111.246 183.258C111.246 183.258 117.518 162.734 119.758 158.406C121.998 154.077 122.634 139.019 125.582 138.703C128.53 138.387 127.822 142.435 127.822 142.435C128.643 142.957 135.663 135.718 135.663 135.718C134.698 138.863 133.153 141.799 131.108 144.375C131.108 144.375 138.575 136.763 140.591 133.404C142.607 130.046 142.905 125.419 132.75 121.837Z" fill="#09142C"/>
<path d="M112.332 144.22C113.876 139.43 114.083 134.337 115.55 129.555C112.972 134.951 110.935 140.588 109.466 146.384C102.597 171.162 106.106 188.625 106.106 188.625C106.33 181.759 114.555 166.833 114.555 166.833C113.521 169.146 111.258 183.028 111.258 183.028C111.258 183.028 114.554 172.247 117.22 164.665C111.535 159.486 109.836 151.965 112.332 144.22Z" fill="#080D19"/>
<path d="M108.815 305.236L109.434 311.708L116.575 287.574L114.543 288.161L108.815 305.236Z" fill="#F6B07F"/>
<path d="M141.262 139.263C139.258 139.028 137.232 139.445 135.485 140.453C135.336 140.542 135.223 140.682 135.168 140.847C135.112 141.011 135.117 141.191 135.182 141.352C135.247 141.514 135.367 141.647 135.521 141.727C135.676 141.808 135.854 141.831 136.023 141.792C137.558 141.45 139.15 141.46 140.68 141.821C140.862 141.864 141.054 141.836 141.216 141.742C141.378 141.648 141.499 141.496 141.552 141.317L141.887 140.196C141.918 140.093 141.925 139.985 141.909 139.879C141.893 139.773 141.854 139.672 141.794 139.583C141.734 139.494 141.656 139.419 141.564 139.364C141.472 139.309 141.369 139.274 141.262 139.263Z" fill="#080D19"/>
<path d="M139.216 142.542C138.487 142.542 137.896 143.518 137.896 144.721C137.896 145.924 138.487 146.9 139.216 146.9C139.946 146.9 140.537 145.924 140.537 144.721C140.537 143.518 139.946 142.542 139.216 142.542Z" fill="#63332A"/>
<path d="M134.007 153.792C135.234 153.99 136.415 154.406 137.494 155.021L137.896 154.398C136.677 153.851 135.334 153.642 134.007 153.792Z" fill="#63332A"/>
<path opacity="0.4" d="M121.342 152.836L115.704 169.101C115.704 169.101 115.485 170.489 119.066 176.099C119.993 177.684 121.258 179.045 122.771 180.085C124.285 181.126 126.009 181.819 127.821 182.117L126.895 179.452C127.508 177.675 127.821 169.053 127.821 169.053L125.177 166.442L127.821 158.109C125.379 157.09 121.342 152.836 121.342 152.836Z" fill="#DFF3E2"/>
<path d="M474.101 339.634C510.678 339.634 540.33 331.118 540.33 320.614C540.33 310.109 510.678 301.593 474.101 301.593C437.524 301.593 407.872 310.109 407.872 320.614C407.872 331.118 437.524 339.634 474.101 339.634Z" fill="#DFF3E2"/>
<path d="M452.554 324.464C454.584 321.548 458.071 324.464 458.071 324.464C458.906 326.749 459.419 329.138 459.595 331.564H433.401C433.401 331.564 450.525 327.38 452.554 324.464Z" fill="#1E3465"/>
<path d="M434.629 313.989C437.331 312.142 439.379 315.793 439.379 315.793C439.349 318.033 439.008 320.257 438.365 322.403L415.818 313.834C415.818 313.834 431.927 315.835 434.629 313.989Z" fill="#1E3465"/>
<path d="M529.822 259.874H528.216V235.024L529.822 235.658V259.874Z" fill="#9DA0A8"/>
<path d="M500.098 331.564H495.323V285.053L500.098 281.76V331.564Z" fill="#9DA0A8"/>
<path d="M475.566 317.534H470.791V271.022L475.566 267.728V317.534Z" fill="#8D7E7A"/>
<path d="M528.748 317.533H523.973V263.97L528.748 260.177V317.533Z" fill="#8D7E7A"/>
<path d="M513.756 249.092L530.626 260.122C530.626 260.122 519.971 278.759 505.384 284.337C490.797 289.916 467.225 271.352 467.225 271.352C462.173 262.93 513.756 249.092 513.756 249.092Z" fill="#2F6238"/>
<path d="M458.071 324.464H452.554V314.512L458.53 318.253L458.071 324.464Z" fill="#FFCD9C"/>
<path d="M468.097 268.425C464.17 279.897 459.467 318.442 459.467 318.442C456.551 317.844 453.704 316.952 450.968 315.779C449.827 306.144 451.777 269.226 451.777 269.226C450.684 255.763 472.024 256.952 468.097 268.425Z" fill="#2F6238"/>
<path d="M451.798 263.047L460.433 262.253L468.098 268.424L467.438 270.575C467.438 270.575 466.29 270.736 459.764 271.232C453.238 271.728 451.43 276.492 451.43 276.492L451.778 269.226L451.798 263.047Z" fill="#469353"/>
<path d="M468.473 195.293L472.912 239.751L467.444 243.47C467.444 243.47 463.737 225.721 464.076 212.091C464.414 198.462 468.473 195.293 468.473 195.293Z" fill="#16274C"/>
<path d="M473.144 191.363C476.969 192.419 485.468 236.919 485.468 236.919L471.361 244.571C465.455 222.935 467.796 196.56 468.473 195.293C469.15 194.025 473.144 191.363 473.144 191.363Z" fill="#1E3465"/>
<path d="M441.806 310.597L439.378 315.793L434.63 313.989L437.888 305.421L441.806 310.597Z" fill="#FFCD9C"/>
<path d="M458.325 243.471C480.395 244.654 506.779 250.36 506.779 250.36C506.779 250.36 516.447 259.563 515.925 265.611C515.925 265.611 515.827 271.11 503.396 273.307C490.966 275.505 477.859 272.885 465.513 267.306C453.167 261.727 452.912 265.611 452.912 265.611C450.586 272.697 448.722 279.926 447.332 287.253C445.81 296.635 444.034 311.258 444.034 311.258C442.313 311.348 440.603 310.922 439.126 310.033C437.649 309.144 436.472 307.834 435.747 306.271C435.747 306.271 436.254 242.287 458.325 243.471Z" fill="#5DC46F"/>
<path d="M485.622 195.843C485.622 195.843 493.514 199.672 491.965 203.019L483.821 235.145L482.242 235.906C481.413 231.138 480.245 226.435 478.746 221.833C475.702 211.564 478.746 199.393 478.746 199.393L485.622 195.843Z" fill="#E6D9B6"/>
<path d="M500.077 185.807C503.389 186.041 512.614 192.931 512.614 192.931C512.614 192.931 516.546 230.581 517.815 239.963C519.083 249.346 517.815 267.729 517.815 267.729C503.735 251.627 497.308 251.12 497.308 251.12L486.358 240.921L491.178 213.339C491.178 213.339 496.765 185.573 500.077 185.807Z" fill="#1E3465"/>
<path d="M492.284 181.646C492.915 182.65 493.304 183.787 493.421 184.967C493.537 186.148 493.377 187.339 492.953 188.447C491.473 192.166 485.215 202.731 484.962 204.76C484.962 204.76 477.605 191.151 477.774 188.869C477.943 186.587 492.284 181.646 492.284 181.646Z" fill="#F6B07F"/>
<path d="M492.953 180.586C494.284 181.161 495.447 182.062 496.336 183.206C498.408 188.616 492.573 203.915 492.573 203.915C491.389 201.548 487.15 199.809 487.15 199.809L490.967 183.418C490.967 183.418 490.459 179.36 492.953 180.586Z" fill="#F2EBD1"/>
<path d="M481.326 193.645L482.243 199.547C480.154 200.197 478.305 201.453 476.929 203.154L477.772 191.363L481.326 193.645Z" fill="#F2EBD1"/>
<path d="M500.987 187.39C501.241 189.503 497.308 203.069 496.97 207.507L494.137 204.76C494.137 204.76 494.856 210.127 495.998 211.648C493.891 220.589 490.928 229.307 487.15 237.681L482.721 235.676C482.721 235.676 496.731 187.831 496.458 183.571C496.458 183.571 500.733 185.277 500.987 187.39Z" fill="#577484"/>
<path d="M472.912 203.513L473.659 192.135L478.989 188.278C476.282 223.539 482.721 235.676 482.721 235.676L480.988 235.906C476.083 222.002 472.912 209.725 472.912 209.725C475.703 207.697 475.567 206.556 475.567 206.556L472.912 203.513Z" fill="#577484"/>
<path d="M480.058 239.383C483.525 239.752 496.096 244.221 497.421 245.959L503.397 249.81C503.397 249.81 479.635 252.853 471.77 256.149L450.123 240.921C450.123 240.921 476.591 239.013 480.058 239.383Z" fill="#F9EED2"/>
<path d="M520.785 203.412L533.721 207.877C534.345 208.061 534.897 208.437 535.297 208.95C535.698 209.464 535.927 210.09 535.953 210.741V236.07C535.953 238.327 533.261 239.818 530.918 238.858L526.447 237.027C525.999 236.856 525.595 236.588 525.264 236.242C524.933 235.896 524.683 235.48 524.533 235.025L516.068 207.061C515.328 204.619 518.091 202.481 520.785 203.412Z" fill="#2F6238"/>
<path d="M479.635 246.006L477.816 246.303L470.671 222.721L473.589 222.171L479.635 246.006Z" fill="#1E3465"/>
<path d="M474.844 152.707C479.854 151.263 480.54 155.68 480.54 155.68L469.647 174.624C467.761 171.871 466.385 168.801 465.584 165.561C463.872 159.475 469.834 154.15 474.844 152.707Z" fill="#09142C"/>
<path d="M467.585 164.527C468.726 152.99 481.031 153.75 481.031 153.75L490.163 166.428C490.163 166.428 492.953 178.346 492.953 178.726C492.953 179.107 492.763 181.896 489.529 187.348C486.294 192.799 476.083 193.518 474.217 192.588C472.35 191.658 471.686 185.869 471.686 185.869C471.226 186.091 470.71 186.169 470.205 186.094C469.699 186.018 469.229 185.792 468.853 185.446C471.136 172.261 466.443 176.064 467.585 164.527Z" fill="#FFCD9C"/>
<path d="M482.616 152.102C486.358 149.06 495.11 151.722 496.251 158.315C497.393 164.908 498.344 181.897 493.842 181.643C493.842 181.643 490.861 181.326 490.417 177.523C489.973 173.719 491.305 169.915 488.768 169.852C486.231 169.789 484.963 173.335 484.963 173.335C484.363 170.433 483.337 167.636 481.918 165.034C479.698 161.167 478.874 155.145 482.616 152.102Z" fill="#09142C"/>
<path d="M497.2 170.628C497.181 176.476 496.374 181.786 493.842 181.643C493.842 181.643 490.861 181.326 490.417 177.523C490.389 177.28 490.368 177.037 490.352 176.796C493.152 175.398 495.519 173.266 497.2 170.628H497.2Z" fill="#080D19"/>
<path d="M472.912 233.835C474.936 233.119 477.098 232.875 479.231 233.124C481.364 233.373 483.412 234.108 485.216 235.272C491.6 238.949 494.983 237.681 494.983 237.681L495.772 245.196C493.032 245.908 490.155 245.908 487.414 245.196C483.144 243.978 478.789 242.245 476.675 242.457C474.561 242.669 475.533 238.992 474.18 237.301C472.827 235.611 471.179 234.216 472.912 233.835Z" fill="#FFCD9C"/>
<path d="M498.407 235.906C499.634 236.244 503.436 243.499 501.915 245.809L495.997 246.007C495.997 246.007 494.01 238.611 492.573 236.54C492.573 236.54 497.181 235.568 498.407 235.906Z" fill="#E6D9B6"/>
<path d="M491.965 203.019L491.571 204.377C490.61 202.43 489.064 200.833 487.15 199.809C487.15 199.809 490.889 201.554 491.965 203.019Z" fill="#C6BA9D"/>
<path d="M482.243 199.547C480.819 200.496 479.507 201.602 478.333 202.846L478.348 201.679C479.546 200.799 480.856 200.082 482.243 199.547Z" fill="#C6BA9D"/>
<path d="M497.553 235.835L501.479 238.391L501.916 245.809L500.634 245.852C500.981 244.779 496.913 235.835 496.913 235.835H497.553Z" fill="#C6BA9D"/>
<path d="M509.817 223.112C509.316 217.366 509.131 211.598 509.264 205.832L519.247 232.417L511.834 239.155L497.308 235.526C497.308 235.526 505.152 233.927 507.931 233.029C510.711 232.131 510.611 229.759 509.817 223.112Z" fill="#2C4249"/>
<path d="M497.421 245.959L501.916 245.809L518.268 245.58C518.268 245.58 518.379 255.035 518.268 258.125C518.268 258.125 502.672 250.732 497.308 251.12L496.913 250.751L503.397 249.81L497.421 245.959Z" fill="#2C4249"/>
<path d="M510.923 218.706C508.893 208.563 507.794 194.279 512.614 192.931C517.434 191.583 518.956 195.039 518.956 195.039C520.563 197.49 529.104 236.117 525.467 241.949C521.831 247.782 501.959 246.345 501.959 246.345C501.621 240.681 497.308 235.526 497.308 235.526L514.075 234.258C514.075 234.258 512.952 228.848 510.923 218.706Z" fill="#16274C"/>
<path opacity="0.4" d="M471.771 256.15C476.259 253.568 496.913 250.752 496.913 250.752C506.442 253.116 515.927 265.612 515.927 265.612C515.335 269.812 509.799 271.53 509.799 271.53C500.151 276.292 472.693 268.455 470.112 262.998C467.531 257.541 451.004 245.843 451.004 245.843C451.992 244.955 453.178 244.314 454.462 243.973L471.771 256.15Z" fill="#469353"/>
<path d="M444.034 311.258C441.145 311.245 438.302 310.534 435.747 309.183V306.271L440.704 302.858L444.034 311.258Z" fill="#2F6238"/>
<path d="M526.355 319.443C527.677 319.443 528.748 318.588 528.748 317.534C528.748 316.479 527.677 315.624 526.355 315.624C525.033 315.624 523.962 316.479 523.962 317.534C523.962 318.588 525.033 319.443 526.355 319.443Z" fill="#8D7E7A"/>
<path d="M473.179 315.624C473.538 315.706 473.867 315.887 474.129 316.148C474.39 316.408 474.572 316.737 474.654 317.097C474.736 317.456 474.716 317.831 474.594 318.179C474.472 318.527 474.255 318.834 473.967 319.064C473.678 319.294 473.331 319.438 472.965 319.479C472.598 319.521 472.227 319.458 471.895 319.298C471.563 319.138 471.282 318.888 471.086 318.576C470.89 318.263 470.786 317.902 470.786 317.534C470.857 316.966 471.146 316.449 471.593 316.092C472.04 315.736 472.609 315.568 473.179 315.624Z" fill="#8D7E7A"/>
<path d="M497.711 329.655C498.071 329.736 498.4 329.918 498.661 330.178C498.922 330.439 499.104 330.768 499.187 331.127C499.269 331.486 499.248 331.862 499.126 332.21C499.005 332.558 498.787 332.864 498.499 333.094C498.211 333.324 497.864 333.468 497.497 333.51C497.131 333.551 496.76 333.488 496.428 333.328C496.095 333.169 495.815 332.918 495.618 332.606C495.422 332.294 495.318 331.933 495.318 331.564C495.389 330.997 495.679 330.48 496.126 330.123C496.573 329.766 497.142 329.598 497.711 329.655Z" fill="#9DA0A8"/>
<path d="M528.748 278.636C527.863 276.999 523.972 275.176 523.972 275.176V269.538L528.748 263.098V278.636Z" fill="#685B59"/>
<path d="M475.566 285.173C475.566 285.173 473.306 282.265 470.791 281.759V273.929L475.566 277V285.173Z" fill="#685B59"/>
<path d="M500.099 294.673C500.099 294.673 498.052 291.25 495.323 291.361V285.053L500.099 285.383V294.673Z" fill="#6F737A"/>
<path d="M477.441 186.328C478.032 186.117 477.809 186.873 477.809 186.873C477.535 187.751 477.019 188.535 476.321 189.135C475.622 189.734 474.769 190.125 473.858 190.262C473.369 190.278 472.884 190.171 472.448 189.95C472.313 189.538 472.126 189.146 472.026 188.723C471.93 188.14 471.865 187.553 471.829 186.963C473.724 187.183 475.643 186.966 477.441 186.328Z" fill="#63332A"/>
<path d="M477.337 186.652C477.337 186.652 477.549 186.529 477.618 186.602C477.638 186.846 477.591 187.09 477.48 187.307C477.37 187.525 477.201 187.708 476.993 187.835C475.402 188.454 473.68 188.661 471.987 188.437C471.925 188.045 471.89 187.649 471.854 187.253C473.704 187.454 475.575 187.248 477.337 186.652Z" fill="white"/>
<path d="M475.418 173.793C476.216 173.793 476.862 174.749 476.862 175.93C476.862 177.11 476.216 178.067 475.418 178.067C474.621 178.067 473.974 177.11 473.974 175.93C473.974 174.75 474.621 173.793 475.418 173.793Z" fill="#63332A"/>
<path d="M474.398 168.998C475.886 169.239 479.153 169.931 480.162 171.475C480.432 171.887 480.023 172.426 479.462 172.402C478.272 172.351 476.212 172.29 474.354 172.368C474.201 172.386 474.047 172.348 473.921 172.26C473.795 172.171 473.707 172.04 473.672 171.89C473.542 171.134 473.494 170.365 473.53 169.598C473.546 169.501 473.582 169.409 473.635 169.326C473.687 169.243 473.756 169.171 473.837 169.115C473.918 169.059 474.01 169.02 474.106 169C474.202 168.98 474.302 168.979 474.398 168.998Z" fill="#7F7875"/>
<path d="M469.038 170.204C469.557 170.204 470.466 172.063 470.25 172.625C470.033 173.187 468.418 173.94 468.418 173.94L467.656 171.467C467.656 171.467 468.519 170.204 469.038 170.204Z" fill="#7F7875"/>
<path opacity="0.4" d="M487.781 189.382C490.008 187.911 492.46 181.115 492.46 181.115C492.747 181.351 493.088 181.512 493.453 181.583C493.818 181.655 494.194 181.634 494.549 181.524C496.578 182.972 496.458 183.571 496.458 183.571C497.79 184.089 499.017 184.847 500.077 185.807C502.149 194.539 491.652 213.686 483.863 211.602C476.075 209.519 475.265 192.852 475.265 192.852C479.715 193.193 484.143 191.965 487.781 189.382Z" fill="#1E3465"/>
</g>
<defs>
<clipPath id="clip0">
<rect width="540.33" height="344.773" fill="white"/>
</clipPath>
</defs>
</svg>
