<svg width="625" height="576" viewBox="0 0 625 576" fill="none" xmlns="http://www.w3.org/2000/svg">
<g style="mix-blend-mode:multiply" opacity="0.5">
<path d="M517.017 257.456C572.444 223.991 538.616 140.787 475.012 159.491C416.828 176.602 447.235 291.823 364.366 277.499C337.343 273.501 309.81 278.587 286.068 291.962C237.782 319.164 231.757 253.549 217.901 228.958C209.467 213.998 197.087 201.647 182.13 193.27C167.173 184.893 150.221 180.817 133.15 181.491C116.078 182.166 99.5512 187.565 85.3963 197.093C71.2413 206.62 60.0097 219.904 52.9432 235.476C45.8766 251.049 43.2504 268.302 45.3548 285.33C47.4593 302.358 54.2125 318.496 64.8677 331.961C75.523 345.426 89.6653 355.693 105.731 361.626C121.797 367.56 139.16 368.929 155.902 365.583C217.343 353.284 219.016 424.265 239.542 460.694C308.778 470.054 338.88 456.161 402.326 460.694C448.089 434.913 475.811 432.953 466.97 381.935C463.112 359.675 455.633 335.437 460.885 312.839C467.679 283.605 493.385 271.712 517.017 257.456Z" fill="#DFF3E2"/>
</g>
<path fill-rule="evenodd" clip-rule="evenodd" d="M155.943 282.038H412.019C416.441 282.051 420.679 283.812 423.806 286.937C426.933 290.062 428.695 294.297 428.708 298.717V458.851C428.695 463.271 426.932 467.506 423.806 470.631C420.679 473.756 416.441 475.518 412.019 475.531H155.943C151.52 475.518 147.283 473.756 144.156 470.631C141.029 467.506 139.266 463.271 139.253 458.851V298.717C139.266 294.297 141.029 290.062 144.156 286.937C147.283 283.812 151.52 282.05 155.943 282.038Z" fill="#5DC46F"/>
<path d="M416.833 294.331H151.129V463.236H416.833V294.331Z" fill="#DFF3E2"/>
<path d="M401.762 277.325H298.186V438.248H401.762V277.325Z" fill="#5DC46F" fill-opacity="0.67"/>
<path d="M401.762 277.325H298.186V438.248H401.762V277.325Z" stroke="#102B6E" stroke-width="0.5" stroke-miterlimit="22.9256"/>
<path fill-rule="evenodd" clip-rule="evenodd" d="M261.309 472.956C260.133 495.851 257.023 501.641 235.471 514.688H331.013C309.46 501.641 306.35 495.851 305.174 472.956L283.242 471.096L261.309 472.956Z" fill="#1E3465"/>
<path fill-rule="evenodd" clip-rule="evenodd" d="M428.708 447.888V458.851C428.695 463.271 426.932 467.505 423.805 470.631C420.679 473.756 416.441 475.517 412.019 475.531H155.943C151.521 475.518 147.283 473.756 144.156 470.631C141.029 467.506 139.266 463.271 139.253 458.851V447.888H428.708Z" fill="#E4F5FB"/>
<path d="M428.708 437.081H139.253V454.605H428.708V437.081Z" fill="#469353"/>
<path fill-rule="evenodd" clip-rule="evenodd" d="M296.897 277.325H404.799C405.719 277.325 406.602 276.96 407.253 276.309C407.904 275.659 408.269 274.776 408.269 273.856C408.269 272.937 407.904 272.054 407.253 271.404C406.602 270.753 405.719 270.388 404.799 270.388H296.897C295.977 270.388 295.094 270.753 294.443 271.404C293.792 272.054 293.427 272.937 293.427 273.856C293.427 274.776 293.792 275.659 294.443 276.309C295.094 276.96 295.977 277.325 296.897 277.325Z" fill="#5DC46F"/>
<path fill-rule="evenodd" clip-rule="evenodd" d="M287.662 429.333H388.965L401.114 284.667H299.647L287.662 429.333Z" fill="#469353"/>
<path fill-rule="evenodd" clip-rule="evenodd" d="M297.421 277.325C291.615 330.267 280.108 375.419 270.144 428.857C305.804 429.334 341.653 429.334 377.124 429.334C384.893 390.004 394.292 318.929 401.761 277.326L297.421 277.325Z" fill="#FDFDFD"/>
<path fill-rule="evenodd" clip-rule="evenodd" d="M293.242 396.136H363.116C363.592 396.138 364.048 396.328 364.385 396.664C364.721 397 364.911 397.456 364.912 397.932C364.911 398.407 364.721 398.863 364.385 399.2C364.048 399.536 363.592 399.726 363.116 399.727H293.242C292.766 399.726 292.31 399.536 291.974 399.2C291.637 398.863 291.448 398.408 291.446 397.932C291.448 397.456 291.637 397 291.974 396.664C292.31 396.327 292.766 396.138 293.242 396.136Z" fill="#D2D6E0"/>
<path fill-rule="evenodd" clip-rule="evenodd" d="M290.707 407.63H360.58C361.056 407.632 361.512 407.821 361.849 408.157C362.186 408.494 362.375 408.95 362.377 409.425V409.426C362.375 409.902 362.186 410.358 361.849 410.694C361.512 411.03 361.056 411.22 360.58 411.221H290.707C290.231 411.22 289.775 411.03 289.438 410.694C289.102 410.358 288.912 409.902 288.911 409.426V409.425C288.912 408.95 289.102 408.494 289.438 408.157C289.775 407.821 290.231 407.632 290.707 407.63Z" fill="#D2D6E0"/>
<path fill-rule="evenodd" clip-rule="evenodd" d="M226.142 357.021C232.724 371.46 240.889 388.005 259.729 390.81C275.01 393.085 297.375 364.336 299.574 359.646C301.772 354.957 293.421 342.708 290.726 344.125C288.031 345.543 265.879 362.637 263.856 362.507C261.492 362.353 253.427 336.716 238.793 328.277C236.51 326.961 223.311 350.81 226.142 357.021Z" fill="#173342"/>
<path fill-rule="evenodd" clip-rule="evenodd" d="M189.661 321.412C180.366 321.412 172.397 324.266 166.77 330.092C158.937 338.201 172.548 392.951 173.511 437.351H252.789C253.267 417.645 252.869 371.19 248.423 337.789C245.815 333.678 239.756 328.433 233.74 325.001C223.179 318.979 202.56 321.412 189.661 321.412" fill="#1E3465"/>
<path fill-rule="evenodd" clip-rule="evenodd" d="M218.451 321.211C229.992 327.448 238.989 370.219 238.74 437.081H206.925C205.708 367.101 194.66 333.328 190.283 321.409C199.672 320.789 206.794 320.222 218.451 321.211" fill="white"/>
<path fill-rule="evenodd" clip-rule="evenodd" d="M194.191 321.151C201.6 320.672 208.108 320.38 217.665 321.146C220.48 324.959 221.527 336.949 211.866 341.905C203.825 340.382 190.818 329.583 194.191 321.151Z" fill="#E4F5FB"/>
<path fill-rule="evenodd" clip-rule="evenodd" d="M218.532 322.715C217.896 322.067 217.176 321.507 216.392 321.049C216.811 321.079 217.235 321.111 217.665 321.146C218.014 321.634 218.305 322.16 218.532 322.715" fill="white"/>
<path fill-rule="evenodd" clip-rule="evenodd" d="M230.491 304.118C231.801 312.429 221.81 318.763 215.029 318.21V322.012L215.707 322.928C219.689 330.771 215.407 336.826 211.291 338.941C204.85 336.632 195.949 330.73 195.804 322.519L196.222 322.012V307.444C195.7 307.296 195.199 307.085 194.728 306.817C193.233 305.948 192.651 303.824 193.051 301.631C193.451 299.439 196.64 300.921 196.64 300.921H196.64C193.874 294.421 190.333 288.816 197.461 285.203C204.588 281.59 218.964 281.862 218.964 281.862L228.588 281.057C226.257 284.597 229.623 298.61 230.491 304.118" fill="#F8BABC"/>
<path fill-rule="evenodd" clip-rule="evenodd" d="M216.616 318.291C216.076 318.279 215.546 318.253 215.028 318.21C210.752 318.137 206.264 315.237 202.288 313.786C202.288 313.786 204.305 320.899 209.389 323.143C211.178 323.951 213.079 324.481 215.028 324.714V318.21L216.565 318.245L216.616 318.291Z" fill="#EA8287"/>
<path fill-rule="evenodd" clip-rule="evenodd" d="M201.108 288.697C197.607 291.427 200.04 298.619 201.031 300.687C202.107 302.934 203.238 305.859 202.458 306.2C199.416 307.528 196.892 301.968 195.452 301.281C194.969 301.052 194.044 300.94 193.649 301.239C192.307 302.25 193.039 305.443 194.573 306.514C195.024 306.829 195.72 307.444 195.72 307.444C189.548 307.276 174.916 292.566 182.033 283.555C183.766 265.702 194.034 260.924 205.893 261.227C210.521 261.345 214.859 263.933 219.527 265.908C221.369 266.687 222.866 267.529 224.25 267.665C227.647 268.001 228.402 264.813 230.435 266.666C238.774 274.268 232.397 295.837 213.105 289.659C206.801 287.639 203.582 286.769 201.108 288.697" fill="#173342"/>
<path fill-rule="evenodd" clip-rule="evenodd" d="M187.686 345.607C191.081 338.626 187.27 331.32 180.075 328.248C172.88 325.176 165.13 329.522 161.734 336.504C155.072 350.204 135.62 381.35 145.175 396.759C152.926 409.258 173.952 403.239 178.795 401.937C183.638 400.635 186.558 385.409 186.558 385.409C186.558 385.409 172.134 385.761 170.513 382.005C167.828 375.785 185.306 350.501 187.686 345.607" fill="#1E3465"/>
<path fill-rule="evenodd" clip-rule="evenodd" d="M184.997 386.848C180.913 389.285 177.805 396.305 178.07 400.925C179.172 400.713 188.659 397.567 188.659 397.567C191.972 393.814 193.073 388.976 192.208 385.883L184.997 386.848Z" fill="white"/>
<path fill-rule="evenodd" clip-rule="evenodd" d="M210.089 377.905L211.136 378.726C211.303 378.857 211.41 379.049 211.436 379.259C211.461 379.469 211.402 379.681 211.272 379.847L193.561 402.235C193.289 402.58 191.209 403.571 190.864 403.301C190.518 403.029 191.017 400.732 191.289 400.387L208.968 378.04C209.099 377.875 209.291 377.767 209.501 377.742C209.711 377.717 209.922 377.775 210.09 377.905" fill="#5DC46F"/>
<path fill-rule="evenodd" clip-rule="evenodd" d="M191.82 386.557L196.821 385.734L202.537 381.945C202.537 381.945 203.341 381.3 204.442 382.146C212.75 388.534 205.399 390.882 199.926 396.566C197.387 396.629 197.662 396.639 195.942 394.331C195.608 393.882 188.301 396.435 188.301 396.435C188.192 394.921 188.785 389.907 191.82 386.557Z" fill="#F8BABC"/>
<path fill-rule="evenodd" clip-rule="evenodd" d="M291.491 345.784C290.785 350.215 294.919 357.363 298.062 358.632C298.412 358.008 300.514 355.303 301.904 353.225C304.893 348.76 297.838 339.431 295.771 341.501L291.491 345.784Z" fill="white"/>
<path fill-rule="evenodd" clip-rule="evenodd" d="M321.465 337.494C324.711 343.126 327.739 350.647 328.402 356.171H345.568C346.883 353.442 350.899 348.072 354.567 343.396C358.232 338.725 361.551 334.722 361.485 334.748C364.22 331.22 365.966 328.188 366.945 322.714C367.925 317.241 366.488 310.211 362.914 305.914C359.344 301.622 353.81 298.95 347.176 298.95C340.543 298.95 334.051 301.62 328.942 305.914C323.832 310.208 319.88 317.249 318.901 322.714C317.921 328.18 318.579 331.178 320.027 334.697C320.547 335.641 320.86 336.55 321.466 337.494" fill="#F7AB2B"/>
<path fill-rule="evenodd" clip-rule="evenodd" d="M344.858 331.868C345.122 331.47 345.463 331.129 345.861 330.866C346.259 330.603 346.707 330.422 347.176 330.336C347.781 330.227 348.405 330.315 348.956 330.588C349.491 330.868 349.93 331.302 350.215 331.835C350.549 332.474 350.694 333.196 350.631 333.915C350.57 334.802 350.328 335.667 349.921 336.457C349.312 337.698 347.356 338.554 344.943 339.043C344.319 342.563 343.691 346.077 343.06 349.586H341.527C342.142 346.158 342.757 342.728 343.372 339.295C341.101 339.583 338.803 339.589 336.53 339.312C335.915 342.739 335.303 346.164 334.694 349.586H333.058C333.682 346.075 334.31 342.56 334.941 339.043C332.688 338.554 331.061 337.695 330.89 336.457C330.767 335.606 330.832 334.738 331.08 333.915C331.316 333.145 331.717 332.435 332.253 331.835C332.724 331.301 333.305 330.876 333.956 330.588C334.544 330.325 335.194 330.238 335.83 330.336C336.239 330.399 336.623 330.576 336.936 330.848C337.249 331.119 337.479 331.472 337.6 331.868C337.901 332.769 337.789 333.889 337.552 334.875C337.515 335.001 337.486 335.127 337.458 335.253C336.928 335.211 336.416 335.161 335.896 335.11C335.915 334.992 335.953 334.874 335.981 334.756C336.133 334.133 336.255 333.325 336.057 332.761C336.003 332.584 335.9 332.427 335.759 332.307C335.618 332.188 335.446 332.112 335.263 332.087C334.928 332.037 334.586 332.083 334.278 332.222C333.904 332.386 333.572 332.631 333.303 332.938C332.985 333.288 332.749 333.705 332.613 334.159C332.45 334.713 332.409 335.296 332.49 335.868C332.811 338.192 347.372 338.191 348.52 335.868C348.796 335.337 348.963 334.755 349.012 334.159C349.045 333.738 348.963 333.316 348.776 332.938C348.614 332.629 348.359 332.378 348.047 332.222C347.709 332.057 347.323 332.021 346.961 332.121C346.599 332.22 346.285 332.447 346.079 332.761C345.713 333.367 345.492 334.05 345.435 334.756C345.426 334.875 345.407 334.992 345.397 335.11C344.848 335.161 344.319 335.211 343.788 335.253C343.798 335.127 343.822 335.001 343.836 334.875C343.927 333.804 344.278 332.772 344.858 331.868" fill="white"/>
<path fill-rule="evenodd" clip-rule="evenodd" d="M331.108 357.341H342.398C342.715 357.331 343.03 357.394 343.319 357.525C343.607 357.656 343.862 357.851 344.063 358.096C344.265 358.341 344.407 358.629 344.479 358.937C344.551 359.246 344.551 359.567 344.48 359.876C344.336 360.571 343.963 361.199 343.421 361.658C342.88 362.117 342.199 362.382 341.489 362.411H330.2C329.883 362.421 329.568 362.358 329.279 362.227C328.99 362.096 328.736 361.901 328.534 361.656C328.333 361.411 328.191 361.123 328.119 360.814C328.047 360.506 328.046 360.184 328.118 359.876C328.262 359.18 328.634 358.553 329.176 358.094C329.718 357.634 330.398 357.37 331.108 357.341Z" fill="#D2D6E0"/>
<path fill-rule="evenodd" clip-rule="evenodd" d="M331.033 363.034H340.439C340.652 363.028 340.864 363.071 341.058 363.16C341.251 363.249 341.422 363.381 341.556 363.546C341.691 363.711 341.786 363.905 341.833 364.113C341.881 364.32 341.88 364.536 341.83 364.743C341.737 365.212 341.488 365.636 341.124 365.946C340.76 366.256 340.302 366.435 339.824 366.452H330.417C330.203 366.459 329.991 366.417 329.795 366.329C329.6 366.241 329.428 366.11 329.292 365.945C329.155 365.779 329.059 365.585 329.01 365.377C328.96 365.169 328.959 364.952 329.007 364.743C329.106 364.274 329.359 363.85 329.726 363.541C330.093 363.231 330.553 363.053 331.033 363.034Z" fill="#D2D6E0"/>
<path fill-rule="evenodd" clip-rule="evenodd" d="M331.847 367.068H338.158C338.363 367.06 338.567 367.1 338.754 367.184C338.94 367.268 339.105 367.393 339.235 367.552C339.365 367.71 339.457 367.896 339.504 368.095C339.55 368.294 339.55 368.502 339.503 368.701C339.411 369.149 339.172 369.553 338.824 369.849C338.475 370.145 338.038 370.316 337.581 370.334H331.26C331.056 370.341 330.852 370.301 330.666 370.217C330.479 370.133 330.315 370.007 330.185 369.849C330.055 369.691 329.963 369.505 329.917 369.306C329.87 369.107 329.87 368.9 329.916 368.701C330.01 368.253 330.251 367.849 330.601 367.553C330.95 367.257 331.389 367.086 331.847 367.068Z" fill="#D2D6E0"/>
<path fill-rule="evenodd" clip-rule="evenodd" d="M368.412 291.456C368.989 291.818 369.05 292.647 368.573 293.275C367.29 294.962 366.012 296.639 364.741 298.327C364.261 298.963 363.406 299.186 362.838 298.815C362.27 298.453 362.189 297.63 362.668 296.996C363.939 295.315 365.213 293.631 366.491 291.944C366.975 291.305 367.834 291.085 368.412 291.456L368.412 291.456ZM328.647 291.456C329.348 291.085 330.126 291.303 330.38 291.944C331.044 293.627 331.716 295.311 332.395 296.996C332.65 297.628 332.281 298.453 331.572 298.815C330.872 299.186 330.094 298.964 329.84 298.327C329.167 296.64 328.492 294.96 327.824 293.275C327.575 292.644 327.938 291.818 328.648 291.456L328.647 291.456ZM311.481 305.999C311.964 305.367 312.827 305.145 313.393 305.51C314.9 306.483 316.412 307.464 317.926 308.432C318.493 308.795 318.56 309.62 318.097 310.251C317.604 310.891 316.743 311.111 316.166 310.739C314.661 309.772 313.146 308.804 311.642 307.826C311.074 307.457 310.999 306.638 311.481 305.999L311.481 305.999ZM380.354 305.999C380.61 306.638 380.24 307.454 379.531 307.826C377.675 308.801 375.812 309.772 373.967 310.739C373.258 311.111 372.471 310.891 372.226 310.251C371.97 309.62 372.34 308.796 373.039 308.432C374.895 307.467 376.756 306.483 378.614 305.51C379.311 305.144 380.099 305.367 380.354 305.999V305.999ZM382.124 325.872C382.048 326.239 381.851 326.571 381.564 326.813C381.278 327.056 380.919 327.196 380.544 327.211H374.705C374.537 327.216 374.371 327.183 374.219 327.114C374.066 327.044 373.932 326.941 373.826 326.812C373.72 326.682 373.645 326.53 373.607 326.367C373.569 326.204 373.569 326.035 373.607 325.872C373.682 325.505 373.879 325.174 374.166 324.932C374.453 324.691 374.813 324.553 375.187 324.541H381.017C381.184 324.535 381.351 324.567 381.503 324.635C381.656 324.703 381.791 324.806 381.898 324.934C382.006 325.063 382.082 325.214 382.121 325.377C382.16 325.539 382.161 325.709 382.124 325.872L382.124 325.872ZM311.103 325.872C311.027 326.239 310.83 326.571 310.544 326.813C310.257 327.056 309.898 327.196 309.523 327.211H303.684C303.517 327.215 303.353 327.18 303.202 327.11C303.051 327.04 302.918 326.937 302.814 326.807C302.71 326.678 302.637 326.526 302.601 326.364C302.565 326.202 302.566 326.033 302.605 325.872C302.679 325.508 302.873 325.178 303.156 324.937C303.439 324.696 303.795 324.557 304.167 324.541H310.006C310.172 324.535 310.338 324.568 310.491 324.636C310.643 324.704 310.777 324.807 310.884 324.935C310.99 325.064 311.065 325.216 311.103 325.378C311.141 325.541 311.141 325.71 311.103 325.872L311.103 325.872ZM349.486 286.125C349.652 286.121 349.818 286.155 349.969 286.225C350.12 286.295 350.254 286.398 350.359 286.528C350.464 286.657 350.538 286.809 350.575 286.971C350.613 287.133 350.612 287.302 350.574 287.464C350.223 289.409 349.876 291.355 349.533 293.3C349.458 293.665 349.262 293.994 348.977 294.236C348.692 294.477 348.335 294.616 347.962 294.63C347.795 294.637 347.629 294.605 347.476 294.537C347.323 294.469 347.189 294.367 347.082 294.238C346.976 294.109 346.901 293.957 346.863 293.794C346.825 293.631 346.826 293.462 346.864 293.3C347.208 291.355 347.555 289.41 347.905 287.464C347.981 287.097 348.178 286.765 348.465 286.523C348.751 286.28 349.11 286.14 349.486 286.125Z" fill="#FCA700"/>
<path fill-rule="evenodd" clip-rule="evenodd" d="M299.807 338.773C300.247 336.736 302.099 328.688 303.6 327.335C304.367 326.645 304.549 326.957 304.89 327.395C305.26 328.044 305.423 328.79 305.356 329.534C305.179 331.027 305.064 332.387 304.838 333.191C309.381 330.815 313.733 325.244 317.054 321.429C318.404 319.878 320.552 320.045 319.253 322.811C318.191 325.074 312.127 332.463 312.127 332.463L321.171 327.57C322.762 326.709 322.753 328.665 321.994 329.488C320.748 330.837 312.978 335.689 312.978 335.689L321.492 334.442C321.492 334.442 322.361 335.354 321.302 335.989C320.243 336.625 312.079 339.246 312.079 339.246L317.595 339.353C317.595 339.353 318.112 340.465 316.72 340.903C315.978 341.136 314.053 341.358 312.215 341.964C310.907 342.429 309.653 343.029 308.47 343.755C305.209 345.709 303.662 348.941 301.349 351.656C300.096 350.696 296.945 347.035 296.496 342.531L299.807 338.773Z" fill="#F8BABC"/>
<path fill-rule="evenodd" clip-rule="evenodd" d="M122.362 412.855C139.658 429.449 136.213 485.013 158.195 491.934C158.195 491.934 173.896 495.56 172.838 500.171C171.78 504.783 169.736 506.523 169.736 506.523C169.736 506.523 151.24 508.206 135.704 504.954C126.966 503.126 125.676 491.627 122.363 490.293C113.159 486.589 108.282 449.382 108.282 449.382L122.362 412.855Z" fill="#1E3465"/>
<path fill-rule="evenodd" clip-rule="evenodd" d="M101.991 404.794H63.7774C47.0084 404.794 32.9692 417.148 30.1959 433.259C29.9053 433.259 28.6434 443.891 28.5551 444.819C26.6693 464.705 26.5237 493.758 32.1239 514.68H121.976L122.363 465.336V412.855C116.43 407.831 110.302 404.794 101.991 404.794Z" fill="#16274C"/>
<path fill-rule="evenodd" clip-rule="evenodd" d="M105.269 368.653C105.105 371.786 105.528 374.923 106.514 377.901C109.182 385.548 103.342 398.702 93.1239 397.828L93.1603 404.793H93.0004C97.5244 410.104 91.9453 422.704 86.8105 422.744C82.3811 422.777 74.2701 413.223 73.7025 404.793V390.512C73.143 390.397 72.6144 390.165 72.1519 389.83C71.1254 389.204 65.9602 384.102 66.3762 381.72C66.7922 379.339 71.5481 379.064 71.5481 379.064L72.6453 378.099C69.7745 371.04 67.5921 370.913 74.9891 366.99C82.3865 363.067 97.3066 363.362 97.3066 363.362L105.028 365.675L105.269 368.653Z" fill="#F8BABC"/>
<path fill-rule="evenodd" clip-rule="evenodd" d="M93.1241 397.844L93.1599 404.724C90.71 404.322 88.3297 403.574 86.0903 402.503C82.9683 401.074 80.5357 398.473 79.3204 395.264C83.4469 396.841 87.2631 397.731 91.7012 397.811L93.1241 397.844Z" fill="#ED979B"/>
<path fill-rule="evenodd" clip-rule="evenodd" d="M142.563 475.89C142.563 475.89 153.124 475.79 156.541 477.083C159.959 478.377 161.191 480.159 161.191 480.159L164.682 481.032C164.682 481.032 165.342 483.648 164.682 483.648C164.022 483.648 145.485 485.392 145.485 485.392L141.534 484.883C141.534 484.883 142.83 478.973 142.412 477.822C141.994 476.671 140.011 475.376 140.011 475.376L142.563 475.89Z" fill="#F7AAAC"/>
<path fill-rule="evenodd" clip-rule="evenodd" d="M59.6674 428.693C56.0333 420.629 47.5491 411.272 43.5906 419.185L43.5903 419.186C38.9073 423.866 37.9214 424.514 37.8091 430.727C37.4663 449.95 44.7648 498.356 65.8296 503.789C77.1231 506.701 96.3736 509.197 109.048 508.762C114.166 508.587 119.809 510.576 121.816 509.071C128.796 503.84 120.964 497.926 120.964 497.926C120.964 497.926 77.1376 484.911 72.6771 483.552C65.2865 481.3 62.2154 434.346 59.6674 428.693Z" fill="#F8BABC"/>
<path fill-rule="evenodd" clip-rule="evenodd" d="M123.658 490.518C122.257 492.619 121.352 495.01 121.01 497.511C120.519 501.518 121.432 503.607 121.432 503.607C132.009 504.455 153.25 503.658 153.209 503.651C152.495 503.544 154.198 502.021 151.922 500.852C150.285 500.01 144.894 499.739 142.999 498.48C134.586 492.892 128.928 493.988 123.658 490.518" fill="#E88E92"/>
<path fill-rule="evenodd" clip-rule="evenodd" d="M127.911 453.905H203.823C206.751 453.905 209.791 456.371 209.147 459.224L197.802 509.368C197.157 512.221 195.407 514.688 192.48 514.688H116.567C113.639 514.688 110.598 512.222 111.244 509.368L122.588 459.224C123.234 456.37 124.983 453.905 127.911 453.905Z" fill="#469353"/>
<path fill-rule="evenodd" clip-rule="evenodd" d="M131.314 453.905H207.226C210.154 453.905 213.194 456.371 212.549 459.224L201.205 509.368C200.56 512.221 198.81 514.688 195.882 514.688H119.97C117.043 514.688 114.001 512.222 114.647 509.368L125.991 459.224C126.636 456.37 128.386 453.905 131.314 453.905Z" fill="white"/>
<path fill-rule="evenodd" clip-rule="evenodd" d="M165.2 479.314C167.494 480.051 168.637 482.879 167.752 485.63C166.867 488.381 164.29 490.015 161.996 489.277C159.702 488.54 158.559 485.712 159.444 482.962C160.329 480.21 162.906 478.577 165.2 479.314Z" fill="#1E3465"/>
<path fill-rule="evenodd" clip-rule="evenodd" d="M67.2673 508.762H112.047L116.298 514.688H64.3025V511.724C64.3052 510.939 64.6184 510.187 65.1738 509.632C65.7293 509.077 66.4818 508.764 67.2672 508.762" fill="#469353"/>
<path fill-rule="evenodd" clip-rule="evenodd" d="M78.2616 368.996C76.0882 373.086 77.034 380.352 78.0679 382.51C79.5477 385.6 78.4563 386.836 77.166 386.396C74.3023 385.418 73.4425 384.164 71.2977 383.141C70.7939 382.901 69.7629 382.713 69.4151 383.096C67.9895 384.669 71.1188 389.096 73.0301 390.28C63.674 391.384 51.4019 375.496 59.1131 365.733C54.7207 335.273 95.5945 335.684 110.753 352.94C113.368 355.917 113.734 362.06 112.156 364.458C104.969 375.375 86.6189 364.08 80.0087 367.311C79.2589 367.668 78.6457 368.26 78.2615 368.996" fill="#173342"/>
<path fill-rule="evenodd" clip-rule="evenodd" d="M2.59804 514.687H539.402C539.743 514.686 540.08 514.752 540.396 514.882C540.711 515.011 540.997 515.201 541.239 515.442C541.48 515.682 541.671 515.968 541.802 516.282C541.933 516.597 542 516.934 542 517.275C542 517.615 541.933 517.952 541.802 518.267C541.671 518.581 541.48 518.867 541.239 519.107C540.997 519.348 540.711 519.538 540.396 519.668C540.08 519.797 539.743 519.863 539.402 519.862H2.59804C2.2573 519.863 1.91966 519.797 1.60451 519.668C1.28935 519.538 1.00288 519.348 0.761506 519.107C0.520136 518.867 0.32862 518.581 0.197944 518.267C0.0672669 517.952 0 517.615 0 517.275C0 516.934 0.0672669 516.597 0.197944 516.282C0.32862 515.968 0.520136 515.682 0.761506 515.442C1.00288 515.201 1.28935 515.011 1.60451 514.882C1.91966 514.752 2.2573 514.686 2.59804 514.687Z" fill="#173342"/>
<path fill-rule="evenodd" clip-rule="evenodd" d="M433.873 416.726C416.775 433.13 405.636 483.857 383.906 490.7C383.906 490.7 381.888 495.783 382.934 500.342C383.981 504.902 386.001 506.62 386.001 506.62C386.001 506.62 404.285 508.284 419.642 505.07C428.281 503.262 429.556 491.895 432.831 490.577C441.93 486.915 446.751 450.134 446.751 450.134L433.873 416.726Z" fill="#F7AB2B"/>
<path fill-rule="evenodd" clip-rule="evenodd" d="M382.634 497.408C382.628 498.374 382.3 497.577 382.934 500.342C383.569 503.108 386.001 506.62 386.001 506.62C386.001 506.62 404.285 508.283 419.642 505.069C428.28 503.262 432.286 496.315 435.56 494.998C439.515 493.407 437.455 462.213 440.402 458.829L440.833 456.907L434.545 437.054C434.545 437.054 425.183 484.936 406.527 490.706C387.871 496.477 386.983 496.413 382.634 497.409" fill="#ECA01F"/>
<path fill-rule="evenodd" clip-rule="evenodd" d="M444.702 355C449.112 387.155 427.493 397.077 448.661 426.812C448.661 426.812 461.626 412.551 467.179 411.543C472.732 410.535 473.47 393.087 473.47 392.192C473.47 391.298 468.529 356.512 468.529 356.512L444.702 355Z" fill="#173342"/>
<path fill-rule="evenodd" clip-rule="evenodd" d="M457.717 406.056H490.692C507.27 406.056 522.382 417.519 525.124 433.446C530.596 463.941 519.809 511.874 519.536 514.684H433.214L432.831 465.906L433.872 416.726C438.987 411.01 449.5 406.056 457.717 406.056" fill="#F7AB2B"/>
<path fill-rule="evenodd" clip-rule="evenodd" d="M480.934 406.056C475.567 421.006 468.539 410.989 461.699 406.056C460.372 406.056 458.205 405.968 456.033 406.122C436.797 470.344 450.976 470.344 453.032 503.277L471.853 512.725C476.05 510.172 481.809 507.87 486.005 505.318C486.651 471.814 473.102 471.554 490.692 406.056H480.934Z" fill="white"/>
<path fill-rule="evenodd" clip-rule="evenodd" d="M449.73 370.329C449.891 373.427 449.474 376.527 448.498 379.471C445.861 387.03 451.635 400.034 461.736 399.171L461.699 406.056H461.857C459.354 414.461 464.285 422.43 468.135 422.594C471.552 422.739 480.467 417.295 480.934 406.056L479.934 394.817C480.432 394.662 481.452 392.512 482.467 391.893C483.483 391.274 484.599 388.679 484.188 386.324C483.775 383.97 481.693 379.063 481.693 379.063C484.531 372.084 486.975 372.564 479.663 368.686C472.351 364.807 457.601 365.098 457.601 365.098L449.968 367.386L449.73 370.329Z" fill="#F8BABC"/>
<path fill-rule="evenodd" clip-rule="evenodd" d="M461.735 399.186L461.699 405.987C464.122 405.59 466.475 404.85 468.689 403.791C471.775 402.379 474.179 399.808 475.381 396.635C471.301 398.194 467.528 399.074 463.142 399.153L461.735 399.186Z" fill="#EB8E91"/>
<path fill-rule="evenodd" clip-rule="evenodd" d="M412.863 476.338C412.863 476.338 402.422 476.24 399.044 477.518C395.666 478.797 394.447 480.559 394.447 480.559L390.997 481.421C390.997 481.421 390.345 484.007 390.997 484.007C391.649 484.007 409.974 485.731 409.974 485.731L413.879 485.228C413.879 485.228 412.599 479.386 413.011 478.248C413.424 477.11 415.385 475.83 415.385 475.83L412.863 476.338Z" fill="#F7AAAC"/>
<path fill-rule="evenodd" clip-rule="evenodd" d="M496.224 426.402C499.817 418.429 510.515 414.099 516.703 420.283V420.283C521.333 424.909 522.307 425.55 522.418 431.693C522.757 450.696 514.985 504.216 493.718 507.415C482.053 509.171 463.024 511.033 450.495 510.603C445.436 510.43 441.357 510.627 439.373 509.14C432.473 503.968 442.329 496.098 442.329 496.098C442.329 496.098 480.039 482.569 484.448 481.225C491.755 478.999 493.705 431.991 496.224 426.402Z" fill="#FFC86B"/>
<path fill-rule="evenodd" clip-rule="evenodd" d="M520.802 425.2C532.388 442.109 514.416 504.481 493.718 507.416C482.039 509.072 463.023 511.032 450.494 510.603C445.436 510.43 441.358 510.628 439.373 509.14C439.373 509.14 476.619 504.375 494.304 499.275C510.262 494.673 521.339 443.835 520.802 425.2Z" fill="#FFBC4A"/>
<path fill-rule="evenodd" clip-rule="evenodd" d="M431.551 490.798C432.935 492.875 433.83 495.239 434.168 497.711C434.655 501.673 433.751 503.737 433.751 503.737C423.295 504.576 402.298 503.787 402.337 503.782C403.044 503.675 401.36 502.169 403.61 501.014C405.229 500.182 410.558 499.914 412.432 498.67C420.747 493.146 426.341 494.229 431.551 490.798Z" fill="#E88E92"/>
<path fill-rule="evenodd" clip-rule="evenodd" d="M427.347 454.605H352.304C349.409 454.605 346.404 457.043 347.042 459.864L358.256 509.433C358.894 512.254 360.624 514.692 363.518 514.692H438.561C441.455 514.692 444.461 512.254 443.823 509.433L432.609 459.864C431.97 457.042 430.241 454.605 427.347 454.605" fill="#469353"/>
<path fill-rule="evenodd" clip-rule="evenodd" d="M423.983 454.605H348.94C346.045 454.605 343.04 457.043 343.678 459.864L354.892 509.433C355.53 512.254 357.26 514.692 360.154 514.692H435.197C438.091 514.692 441.098 512.254 440.459 509.433L429.245 459.864C428.607 457.042 426.878 454.605 423.983 454.605" fill="white"/>
<path fill-rule="evenodd" clip-rule="evenodd" d="M390.484 479.724C388.216 480.452 387.087 483.248 387.962 485.967C388.837 488.687 391.384 490.301 393.653 489.573C395.92 488.844 397.049 486.048 396.175 483.329C395.3 480.609 392.752 478.995 390.484 479.724Z" fill="#1E3465"/>
<path fill-rule="evenodd" clip-rule="evenodd" d="M479.428 509.78H441.322V514.692H481.885V512.236C481.883 511.585 481.624 510.962 481.164 510.502C480.703 510.041 480.079 509.782 479.428 509.78Z" fill="#469353"/>
<path fill-rule="evenodd" clip-rule="evenodd" d="M168.883 495.499H198.379C199.641 495.497 200.891 495.743 202.058 496.224C203.224 496.706 204.285 497.412 205.178 498.303C206.071 499.194 206.78 500.253 207.264 501.418C207.747 502.583 207.996 503.832 207.996 505.093C207.996 506.355 207.747 507.604 207.264 508.769C206.78 509.934 206.071 510.993 205.178 511.884C204.285 512.775 203.224 513.481 202.058 513.962C200.891 514.444 199.641 514.69 198.379 514.688H168.883C166.34 514.683 163.903 513.67 162.106 511.871C160.31 510.073 159.301 507.635 159.301 505.093C159.301 502.552 160.31 500.114 162.106 498.315C163.903 496.517 166.34 495.504 168.883 495.499Z" fill="#469353"/>
<path fill-rule="evenodd" clip-rule="evenodd" d="M194.83 511.745H261.496C257.182 510.36 255.024 501.946 261.496 498.312H194.83C192.421 498.312 190.444 501.338 190.444 505.028C190.444 508.718 192.42 511.745 194.83 511.745Z" fill="#E4F5FB"/>
<path fill-rule="evenodd" clip-rule="evenodd" d="M263.744 514.688H194.589C191.119 514.689 187.45 510.283 187.45 504.97C187.45 499.655 191.119 495.367 194.589 495.367H263.744L263.712 498.262L194.83 498.311C192.421 498.313 190.444 501.338 190.444 505.027C190.444 508.718 192.419 511.744 194.83 511.744L263.712 511.695L263.744 514.688Z" fill="#5DC46F"/>
<path fill-rule="evenodd" clip-rule="evenodd" d="M204.973 505.227H212.778C215.773 506.36 214.908 510.853 216.686 513.795L212.075 511.366L208.73 513.641C206.137 510.973 207.621 506.421 204.973 505.227" fill="#9EDCA9"/>
<path fill-rule="evenodd" clip-rule="evenodd" d="M261.642 483.923H233.104C231.536 483.928 230.034 484.552 228.926 485.66C227.817 486.768 227.193 488.269 227.188 489.836C227.192 491.403 227.817 492.904 228.926 494.012C230.034 495.12 231.536 495.744 233.104 495.749H261.642C263.21 495.745 264.712 495.12 265.82 494.012C266.929 492.904 267.554 491.403 267.558 489.836C267.553 488.269 266.929 486.768 265.82 485.66C264.712 484.552 263.209 483.928 261.642 483.923Z" fill="#469353"/>
<path fill-rule="evenodd" clip-rule="evenodd" d="M238.088 493.935H182.82C184.977 493.05 186.713 488.697 182.82 485.656H238.089C240.086 485.656 241.725 487.521 241.725 489.795C241.725 492.069 240.087 493.935 238.088 493.935" fill="#E4F5FB"/>
<path fill-rule="evenodd" clip-rule="evenodd" d="M180.956 495.749H238.289C241.165 495.749 244.207 493.034 244.207 489.76C244.207 486.484 241.165 483.841 238.289 483.841H180.956L180.983 485.625L238.089 485.656C240.086 485.657 241.725 487.521 241.725 489.795C241.725 492.069 240.087 493.935 238.089 493.935L180.983 493.904L180.956 495.749Z" fill="#5DC46F"/>
<path fill-rule="evenodd" clip-rule="evenodd" d="M344.903 485.905C344.903 501.736 342.746 514.688 340.11 514.688H323.693C321.056 514.688 318.899 501.736 318.899 485.905H344.903Z" fill="#90A7D1"/>
<path fill-rule="evenodd" clip-rule="evenodd" d="M344.786 492.217C344.304 505.038 342.387 514.688 340.11 514.688H323.693C321.073 514.688 318.928 501.903 318.9 486.212L319.049 485.992C319.049 485.992 321.728 503.754 326.267 506.515C330.807 509.277 334.556 508.684 339.392 501.387C341.457 498.269 343.325 494.972 344.786 492.217" fill="#7C93C3"/>
<path fill-rule="evenodd" clip-rule="evenodd" d="M325.183 485.905C326.162 473.645 332.767 448.118 343.36 447.546C352.583 454.264 342.297 477.647 339.276 485.905H325.183Z" fill="#00A551"/>
<path d="M340.609 453.644L332.007 485.845L332.452 485.964L341.054 453.763L340.609 453.644Z" fill="#CBE6D2"/>
<path d="M329.152 479.216L333.111 481.715L334.811 475.348L339.382 472.857L339.601 473.261L335.206 475.656L333.394 482.437L328.907 479.605L329.152 479.216Z" fill="#CBE6D2"/>
<path d="M331.987 468.643L335.945 471.142L337.646 464.775L342.217 462.285L342.436 462.688L338.04 465.084L336.229 471.865L331.742 469.032L331.987 468.643Z" fill="#CBE6D2"/>
<path d="M333.749 462.071L337.708 464.57L339.408 458.203L343.979 455.712L344.199 456.115L339.803 458.511L337.992 465.292L333.504 462.459L333.749 462.071Z" fill="#CBE6D2"/>
<path fill-rule="evenodd" clip-rule="evenodd" d="M331.992 485.755C331.359 477.825 327.085 461.311 320.234 460.941C314.267 465.287 320.921 480.413 322.875 485.755H331.992Z" fill="#00A551"/>
<path d="M322.012 464.886L321.724 464.963L327.29 485.793L327.578 485.717L322.012 464.886Z" fill="#CBE6D2"/>
<path d="M329.424 481.428L326.863 483.046L325.763 478.926L322.806 477.315L322.664 477.576L325.508 479.125L326.68 483.512L329.583 481.68L329.424 481.428Z" fill="#CBE6D2"/>
<path d="M327.59 474.589L325.03 476.206L323.929 472.087L320.973 470.476L320.831 470.737L323.675 472.286L324.846 476.673L327.749 474.841L327.59 474.589Z" fill="#CBE6D2"/>
<path d="M326.45 470.337L323.89 471.954L322.79 467.835L319.832 466.224L319.69 466.485L322.535 468.034L323.706 472.421L326.609 470.589L326.45 470.337Z" fill="#CBE6D2"/>
<path d="M344.897 485.992H319.049V487.49H344.897V485.992Z" fill="white"/>
<path fill-rule="evenodd" clip-rule="evenodd" d="M63.609 423.789C60.205 416.236 50.7486 411.785 44.1355 415.699C41.885 417.031 39.0439 419.957 38.0719 423.542C33.3753 440.858 44.2465 482.398 48.4466 492.801C59.3453 483.099 69.9073 481.096 72.3608 480.521C68.1212 465.802 65.6654 428.351 63.6089 423.788" fill="#1E3465"/>
<path fill-rule="evenodd" clip-rule="evenodd" d="M38.462 422.625C30.8132 439.496 42.8535 478.945 48.4468 492.801C50.3713 491.09 52.4039 489.504 54.5319 488.053C46.38 470.186 39.0086 437.076 38.4621 422.625" fill="#173342"/>
<path fill-rule="evenodd" clip-rule="evenodd" d="M72.3608 480.521C72.3608 480.521 72.2034 481.559 71.7608 481.922C71.3182 482.285 71.0785 482.461 71.0785 482.461L70.3584 480.991L72.3608 480.521Z" fill="#4596D1"/>
<path fill-rule="evenodd" clip-rule="evenodd" d="M87.7533 439.156C87.4278 439.12 87.099 439.184 86.8104 439.338C86.5218 439.493 86.287 439.731 86.137 440.022C85.9871 440.313 85.929 440.643 85.9705 440.968C86.0121 441.292 86.1512 441.597 86.3696 441.84C86.588 442.084 86.8753 442.256 87.1936 442.333C87.5118 442.41 87.846 442.389 88.1519 442.272C88.4578 442.156 88.721 441.949 88.9068 441.679C89.0925 441.41 89.1919 441.09 89.1919 440.763C89.2131 440.359 89.0737 439.964 88.8042 439.663C88.5346 439.362 88.1568 439.18 87.7533 439.156ZM87.7533 429.838C87.4278 429.802 87.0989 429.865 86.8102 430.02C86.5216 430.174 86.2867 430.413 86.1367 430.704C85.9867 430.995 85.9287 431.325 85.9702 431.649C86.0118 431.974 86.151 432.278 86.3694 432.522C86.5879 432.766 86.8753 432.938 87.1936 433.015C87.5119 433.092 87.8462 433.071 88.1521 432.954C88.4581 432.837 88.7213 432.63 88.907 432.361C89.0926 432.091 89.192 431.771 89.1919 431.444C89.213 431.041 89.0736 430.645 88.804 430.344C88.5345 430.043 88.1567 429.861 87.7533 429.838ZM93.1604 405.66C96.0509 413.842 91.2683 419.969 86.8103 422.743C79.8979 417.733 73.6828 412.849 73.6828 403.426C73.6828 403.426 71.2971 403.377 69.7503 407.603C67.1965 414.448 71.4768 429.82 71.4768 429.82C71.4768 429.82 76.2794 422.882 80.2724 422.508C84.2653 422.133 86.8555 423.481 86.8555 423.481C91.9626 419.296 95.4435 424.719 98.8607 428.694C99.9379 418.555 99.944 411.436 93.1507 403.593C93.1531 404.071 93.0689 405.4 93.1603 405.66H93.1604Z" fill="white"/>
<path d="M118.28 449.316H102.91V453.047H118.28V449.316Z" fill="#5DC46F"/>
<path fill-rule="evenodd" clip-rule="evenodd" d="M271.631 459.158C272.219 459.158 272.794 459.332 273.283 459.658C273.772 459.985 274.153 460.448 274.378 460.991C274.603 461.534 274.661 462.131 274.547 462.707C274.432 463.284 274.149 463.813 273.733 464.228C273.318 464.644 272.788 464.927 272.212 465.041C271.635 465.156 271.037 465.097 270.494 464.872C269.951 464.647 269.487 464.267 269.16 463.778C268.834 463.29 268.66 462.715 268.66 462.128C268.66 461.34 268.973 460.585 269.53 460.028C270.087 459.471 270.843 459.158 271.631 459.158Z" fill="#5DC46F"/>
<path fill-rule="evenodd" clip-rule="evenodd" d="M282.635 459.158C283.223 459.158 283.798 459.332 284.287 459.658C284.776 459.985 285.157 460.448 285.382 460.991C285.607 461.534 285.665 462.131 285.551 462.707C285.436 463.284 285.153 463.813 284.737 464.228C284.322 464.644 283.792 464.927 283.215 465.041C282.639 465.156 282.041 465.097 281.498 464.872C280.955 464.647 280.491 464.267 280.164 463.778C279.838 463.29 279.664 462.715 279.664 462.128C279.664 461.738 279.74 461.351 279.89 460.991C280.039 460.631 280.258 460.303 280.534 460.028C280.81 459.752 281.138 459.533 281.498 459.384C281.859 459.235 282.245 459.158 282.635 459.158Z" fill="#1E3465"/>
<path fill-rule="evenodd" clip-rule="evenodd" d="M293.639 459.158C294.227 459.158 294.801 459.332 295.29 459.658C295.779 459.985 296.16 460.448 296.385 460.991C296.61 461.534 296.669 462.131 296.554 462.707C296.439 463.284 296.156 463.813 295.741 464.228C295.325 464.644 294.795 464.927 294.219 465.041C293.642 465.156 293.045 465.097 292.502 464.872C291.958 464.647 291.494 464.267 291.168 463.778C290.841 463.29 290.667 462.715 290.667 462.128C290.667 461.738 290.744 461.351 290.893 460.991C291.043 460.631 291.261 460.303 291.537 460.028C291.813 459.752 292.141 459.533 292.502 459.384C292.862 459.235 293.249 459.158 293.639 459.158Z" fill="#1E3465"/>
<path fill-rule="evenodd" clip-rule="evenodd" d="M450.739 282.569H481.894C482.015 282.569 482.131 282.617 482.216 282.702C482.301 282.788 482.349 282.903 482.35 283.024V284.35C482.349 284.47 482.301 284.586 482.216 284.671C482.131 284.756 482.015 284.804 481.894 284.804H450.739C450.619 284.804 450.503 284.756 450.418 284.671C450.333 284.586 450.285 284.47 450.284 284.35V283.024C450.284 282.903 450.332 282.788 450.418 282.702C450.503 282.617 450.619 282.569 450.739 282.569Z" fill="#5DC46F"/>
<path fill-rule="evenodd" clip-rule="evenodd" d="M450.739 293.002H521.416C521.537 293.002 521.652 293.05 521.738 293.135C521.823 293.22 521.871 293.336 521.871 293.456V294.783C521.871 294.903 521.823 295.019 521.738 295.104C521.652 295.19 521.537 295.238 521.416 295.238H450.739C450.619 295.238 450.503 295.19 450.418 295.104C450.332 295.019 450.284 294.903 450.284 294.783V293.456C450.285 293.336 450.333 293.22 450.418 293.135C450.503 293.05 450.619 293.002 450.739 293.002Z" fill="#D2D6E0"/>
<path fill-rule="evenodd" clip-rule="evenodd" d="M450.739 303.436H521.416C521.537 303.436 521.652 303.484 521.738 303.569C521.823 303.654 521.871 303.77 521.871 303.891V305.216C521.871 305.337 521.823 305.453 521.738 305.538C521.652 305.623 521.537 305.671 521.416 305.672H450.739C450.619 305.671 450.503 305.623 450.418 305.538C450.332 305.453 450.284 305.337 450.284 305.216V303.891C450.284 303.77 450.333 303.654 450.418 303.569C450.503 303.484 450.619 303.436 450.739 303.436Z" fill="#D2D6E0"/>
<path fill-rule="evenodd" clip-rule="evenodd" d="M450.739 313.869H521.416C521.537 313.869 521.652 313.917 521.738 314.003C521.823 314.088 521.871 314.204 521.871 314.325V315.65C521.871 315.771 521.823 315.886 521.738 315.972C521.652 316.057 521.537 316.105 521.416 316.105H450.739C450.619 316.105 450.503 316.057 450.418 315.972C450.332 315.886 450.284 315.771 450.284 315.65V314.325C450.284 314.204 450.332 314.088 450.418 314.003C450.503 313.917 450.619 313.869 450.739 313.869Z" fill="#D2D6E0"/>
<path fill-rule="evenodd" clip-rule="evenodd" d="M450.739 324.303H521.416C521.537 324.303 521.652 324.351 521.738 324.437C521.823 324.522 521.871 324.637 521.871 324.758V326.084C521.871 326.205 521.823 326.32 521.738 326.406C521.652 326.491 521.537 326.539 521.416 326.539H450.739C450.619 326.539 450.503 326.491 450.418 326.406C450.332 326.32 450.284 326.205 450.284 326.084V324.758C450.284 324.637 450.332 324.522 450.418 324.437C450.503 324.351 450.619 324.303 450.739 324.303Z" fill="#D2D6E0"/>
<path fill-rule="evenodd" clip-rule="evenodd" d="M295.769 383.767H365.643C366.119 383.769 366.575 383.959 366.911 384.295C367.248 384.631 367.438 385.087 367.439 385.563V385.564C367.438 386.039 367.248 386.495 366.911 386.832C366.575 387.168 366.119 387.357 365.643 387.359H295.769C295.293 387.357 294.837 387.168 294.501 386.832C294.164 386.495 293.974 386.039 293.973 385.564V385.563C293.974 385.087 294.164 384.632 294.501 384.295C294.837 383.959 295.293 383.769 295.769 383.767Z" fill="#D2D6E0"/>
<path fill-rule="evenodd" clip-rule="evenodd" d="M469.717 367.289C469.717 367.289 452.158 371.883 442.264 365.892C435.774 361.394 435.041 352.287 444.551 345.571C456.803 336.92 480.304 339.468 489.321 353.256C492.467 358.068 495.612 366.432 499.346 374.957C508.029 394.778 531.277 382.396 537.911 415.66C538.218 417.198 532.688 413.728 527.796 412.475C532.487 423.39 526.259 431.499 525.047 433.014C519.767 408.925 497.799 407.986 480.934 406.056C478.432 403.742 478.087 397.228 478.066 393.977C478.066 393.977 483.145 390.407 482.895 386.26C482.646 382.115 481.476 382.223 481.001 382.323C480.525 382.422 477.812 384.001 477.812 384.001C476.849 378.617 477.066 367.887 469.717 367.289" fill="#1E3465"/>
<path fill-rule="evenodd" clip-rule="evenodd" d="M478.809 389.461C479.19 389.461 479.563 389.574 479.88 389.785C480.197 389.997 480.444 390.298 480.59 390.65C480.735 391.002 480.774 391.389 480.699 391.763C480.625 392.137 480.441 392.48 480.172 392.749C479.902 393.019 479.559 393.202 479.185 393.277C478.811 393.351 478.423 393.313 478.071 393.167C477.719 393.021 477.418 392.775 477.206 392.458C476.994 392.141 476.881 391.769 476.881 391.388C476.881 391.135 476.931 390.884 477.027 390.65C477.124 390.416 477.266 390.204 477.445 390.025C477.625 389.846 477.837 389.704 478.071 389.607C478.305 389.51 478.556 389.461 478.809 389.461Z" fill="white"/>
<path fill-rule="evenodd" clip-rule="evenodd" d="M375.561 213.067C375.92 213.068 376.264 213.211 376.518 213.465C376.773 213.719 376.916 214.063 376.917 214.422V226.27C376.916 226.63 376.772 226.974 376.518 227.227C376.264 227.481 375.92 227.624 375.561 227.625C375.201 227.624 374.857 227.481 374.603 227.227C374.349 226.973 374.206 226.629 374.205 226.27V214.422C374.206 214.063 374.349 213.719 374.603 213.465C374.857 213.212 375.201 213.068 375.561 213.067Z" fill="#1E3465"/>
<path fill-rule="evenodd" clip-rule="evenodd" d="M382.844 220.346C382.843 220.705 382.7 221.049 382.446 221.303C382.192 221.557 381.848 221.7 381.489 221.702H369.633C369.274 221.7 368.93 221.557 368.676 221.303C368.422 221.049 368.278 220.705 368.277 220.346C368.278 219.987 368.422 219.643 368.676 219.389C368.93 219.135 369.274 218.992 369.633 218.991H381.488C381.848 218.992 382.192 219.135 382.446 219.389C382.7 219.643 382.843 219.987 382.844 220.346" fill="#1E3465"/>
<path fill-rule="evenodd" clip-rule="evenodd" d="M221.656 226.46C221.949 226.461 222.229 226.577 222.435 226.784C222.642 226.991 222.758 227.271 222.759 227.563V237.2C222.758 237.492 222.642 237.772 222.435 237.978C222.229 238.184 221.949 238.301 221.656 238.302C221.364 238.301 221.084 238.184 220.878 237.978C220.671 237.771 220.555 237.492 220.554 237.2V227.563C220.555 227.271 220.671 226.991 220.878 226.784C221.084 226.578 221.364 226.461 221.656 226.46Z" fill="#1E3465"/>
<path fill-rule="evenodd" clip-rule="evenodd" d="M227.581 232.381V232.381C227.58 232.673 227.463 232.953 227.256 233.159C227.05 233.366 226.77 233.482 226.478 233.483H216.835C216.543 233.482 216.263 233.366 216.057 233.159C215.85 232.953 215.734 232.673 215.733 232.381V232.381C215.733 232.089 215.85 231.809 216.056 231.602C216.263 231.396 216.543 231.279 216.835 231.278H226.478C226.77 231.279 227.05 231.396 227.257 231.602C227.463 231.809 227.58 232.089 227.581 232.381" fill="#1E3465"/>
<path d="M274.524 183.483C273.869 182.829 272.982 182.461 272.056 182.461C271.13 182.46 270.242 182.826 269.587 183.479L269.583 183.483C268.93 184.138 268.563 185.025 268.564 185.95C268.565 186.875 268.933 187.762 269.587 188.417V188.421C270.243 189.069 271.13 189.431 272.053 189.428C272.976 189.425 273.86 189.058 274.513 188.405C275.165 187.753 275.533 186.869 275.536 185.947C275.539 185.025 275.176 184.139 274.528 183.483H274.524ZM272.055 180.515C272.77 180.514 273.477 180.654 274.137 180.927C274.797 181.201 275.396 181.601 275.901 182.107L275.899 182.109C276.918 183.128 277.49 184.509 277.49 185.95C277.49 187.39 276.918 188.772 275.898 189.79C274.879 190.809 273.497 191.381 272.055 191.381C270.614 191.381 269.232 190.809 268.212 189.79L268.21 189.792C267.705 189.288 267.304 188.689 267.031 188.03C266.758 187.371 266.617 186.664 266.617 185.951C266.617 185.238 266.758 184.531 267.031 183.872C267.304 183.213 267.705 182.614 268.21 182.11L268.212 182.109L268.214 182.107C268.718 181.602 269.317 181.201 269.976 180.928C270.635 180.655 271.342 180.514 272.055 180.515Z" fill="#9EDCA9"/>
<path d="M322.817 245.456C322.258 244.898 321.501 244.585 320.711 244.584C319.921 244.583 319.163 244.896 318.603 245.452L318.6 245.456C318.042 246.015 317.73 246.773 317.73 247.562C317.731 248.352 318.045 249.109 318.603 249.667V249.671C319.163 250.226 319.92 250.537 320.709 250.536C321.498 250.534 322.254 250.22 322.812 249.663C323.37 249.105 323.684 248.349 323.686 247.561C323.687 246.772 323.376 246.015 322.82 245.456H322.817ZM320.71 242.923C321.319 242.922 321.923 243.042 322.486 243.275C323.049 243.508 323.561 243.85 323.992 244.281L323.99 244.283C324.422 244.713 324.765 245.225 325 245.788C325.234 246.35 325.355 246.954 325.356 247.564C325.356 248.173 325.236 248.777 325.003 249.34C324.77 249.904 324.428 250.416 323.997 250.847C323.565 251.278 323.053 251.62 322.49 251.853C321.926 252.086 321.322 252.205 320.712 252.205C320.102 252.204 319.498 252.083 318.935 251.849C318.371 251.615 317.86 251.272 317.429 250.84L317.428 250.842C316.997 250.411 316.655 249.9 316.422 249.338C316.188 248.775 316.068 248.172 316.068 247.563C316.068 246.954 316.188 246.351 316.422 245.789C316.655 245.226 316.997 244.715 317.428 244.285L317.429 244.283L317.431 244.281C317.861 243.851 318.372 243.509 318.935 243.276C319.498 243.043 320.101 242.923 320.71 242.923Z" fill="#9EDCA9"/>
<path d="M443.391 224.1C442.832 223.542 442.074 223.228 441.284 223.228C440.494 223.227 439.736 223.54 439.177 224.097L439.173 224.1C438.616 224.659 438.303 225.417 438.304 226.206C438.305 226.996 438.618 227.753 439.177 228.312V228.315C439.736 228.872 440.494 229.185 441.285 229.185C442.075 229.184 442.832 228.87 443.391 228.312C443.95 227.753 444.264 226.996 444.265 226.206C444.265 225.417 443.952 224.659 443.394 224.1H443.391ZM441.283 221.567C441.893 221.566 442.497 221.686 443.06 221.919C443.624 222.152 444.135 222.494 444.566 222.926L444.564 222.927C444.995 223.358 445.337 223.869 445.571 224.431C445.804 224.994 445.925 225.597 445.925 226.206C445.925 226.815 445.805 227.418 445.572 227.981C445.339 228.544 444.997 229.055 444.566 229.486C444.135 229.917 443.623 230.258 443.06 230.491C442.497 230.724 441.894 230.844 441.284 230.844C440.675 230.844 440.071 230.723 439.508 230.49C438.945 230.257 438.434 229.915 438.003 229.484L438.002 229.486C437.571 229.055 437.229 228.544 436.996 227.982C436.762 227.419 436.642 226.816 436.642 226.207C436.642 225.598 436.762 224.995 436.996 224.433C437.229 223.87 437.571 223.359 438.002 222.929L438.003 222.927L438.005 222.926C438.435 222.495 438.946 222.153 439.509 221.92C440.071 221.687 440.674 221.567 441.283 221.567Z" fill="#9EDCA9"/>
<path d="M167.788 219.683C167.229 219.125 166.471 218.811 165.682 218.811C164.892 218.81 164.134 219.122 163.574 219.679L163.571 219.683C163.013 220.242 162.701 221 162.701 221.789C162.702 222.578 163.016 223.335 163.574 223.894V223.898C164.134 224.454 164.891 224.765 165.681 224.764C166.47 224.763 167.227 224.449 167.785 223.891C168.343 223.333 168.657 222.577 168.658 221.788C168.659 220.999 168.348 220.242 167.791 219.683H167.788ZM165.681 217.15C166.291 217.149 166.894 217.269 167.457 217.502C168.021 217.735 168.532 218.077 168.963 218.508L168.961 218.51C169.394 218.94 169.737 219.451 169.972 220.014C170.207 220.577 170.328 221.181 170.329 221.791C170.329 222.401 170.21 223.005 169.977 223.569C169.744 224.132 169.401 224.644 168.97 225.075C168.538 225.507 168.026 225.849 167.462 226.082C166.898 226.315 166.294 226.434 165.684 226.433C165.073 226.433 164.469 226.311 163.906 226.077C163.343 225.842 162.831 225.499 162.401 225.067L162.399 225.069C161.968 224.638 161.626 224.127 161.393 223.565C161.16 223.002 161.039 222.399 161.039 221.79C161.039 221.181 161.16 220.578 161.393 220.016C161.626 219.453 161.968 218.942 162.399 218.512L162.401 218.51L162.402 218.508C162.832 218.078 163.343 217.736 163.906 217.503C164.469 217.27 165.072 217.15 165.681 217.15V217.15Z" fill="#9EDCA9"/>
<path fill-rule="evenodd" clip-rule="evenodd" d="M480.725 251.381C480.98 251.382 481.224 251.484 481.405 251.664C481.585 251.845 481.687 252.089 481.687 252.344V260.761C481.687 261.016 481.585 261.261 481.405 261.441C481.224 261.621 480.98 261.723 480.725 261.723C480.469 261.723 480.225 261.621 480.044 261.441C479.864 261.261 479.762 261.016 479.761 260.761V252.344C479.762 252.089 479.864 251.845 480.044 251.664C480.225 251.484 480.469 251.382 480.725 251.381Z" fill="#1E3465"/>
<path fill-rule="evenodd" clip-rule="evenodd" d="M485.898 256.553C485.897 256.808 485.796 257.052 485.615 257.232C485.435 257.413 485.191 257.515 484.935 257.516H476.514C476.258 257.515 476.014 257.413 475.833 257.233C475.653 257.052 475.551 256.808 475.55 256.553C475.551 256.297 475.653 256.053 475.833 255.873C476.014 255.692 476.258 255.59 476.514 255.59H484.935C485.19 255.591 485.435 255.692 485.615 255.873C485.796 256.053 485.897 256.298 485.898 256.553" fill="#1E3465"/>
<path fill-rule="evenodd" clip-rule="evenodd" d="M139.024 250.656H139.024C139.246 250.657 139.459 250.745 139.617 250.902C139.774 251.059 139.862 251.272 139.863 251.494V258.82C139.862 259.042 139.774 259.255 139.616 259.412C139.459 259.569 139.246 259.657 139.024 259.658H139.024C138.802 259.657 138.589 259.569 138.432 259.412C138.275 259.255 138.186 259.042 138.186 258.82V251.494C138.186 251.272 138.275 251.059 138.432 250.902C138.589 250.745 138.802 250.657 139.024 250.656" fill="#1E3465"/>
<path fill-rule="evenodd" clip-rule="evenodd" d="M143.527 255.157V255.157C143.527 255.379 143.438 255.592 143.281 255.749C143.124 255.906 142.911 255.995 142.689 255.995H135.359C135.137 255.995 134.924 255.906 134.767 255.749C134.61 255.592 134.521 255.379 134.521 255.157V255.157C134.521 254.935 134.61 254.722 134.767 254.565C134.924 254.408 135.137 254.32 135.359 254.319H142.689C142.911 254.32 143.124 254.408 143.281 254.565C143.438 254.722 143.527 254.935 143.527 255.157Z" fill="#1E3465"/>
</svg>
